<svg version="1.2" xmlns="http://www.w3.org/2000/svg" viewBox="0 0 600 605" width="600" height="605">
	<title>perrito-ai-svg</title>
	<defs>
		<clipPath clipPathUnits="userSpaceOnUse" id="cp1">
			<path d="m540.44 278.77v-24.12c0-68.81-55.77-124.6-124.57-124.6h-16.17c-24.45-17.19-54.24-27.3-86.4-27.3-32.16 0-61.96 10.11-86.4 27.3h-61.57c-68.8 0-124.57 55.79-124.57 124.6v123.35h0.04c1.48 67.12 43.87 124.85 103.12 148.88q0 0.01 0 0.01 0.27 0.11 0.55 0.22 1.57 0.63 3.16 1.23 0.57 0.21 1.14 0.43 1.65 0.61 3.32 1.18 0.46 0.16 0.92 0.32 2.03 0.69 4.1 1.33 0.73 0.22 1.46 0.43 1.36 0.41 2.72 0.79 0.93 0.26 1.87 0.51 1.2 0.32 2.4 0.62 0.96 0.24 1.92 0.47 1.32 0.31 2.64 0.6 0.81 0.18 1.62 0.36 4.5 0.93 9.08 1.62 0.04 0 0.08 0.02c8.86 13.75 19.34 29.3 30.27 39.91 0.11 0.12 0.22 0.22 0.36 0.35 4.58 4.4 8.82 7.55 13.01 9.64 0.27 0.14 0.54 0.27 0.74 0.37l0.17 0.07c2.11 0.95 4.38 1.68 6.75 2.15q3.3 0.64 6.87 0.64 2.64 0 5.39-0.35 0.05 0 0.09-0.02c0.9-0.15 1.54-0.87 1.6-1.74 13.19-2.2 26.06-9.95 32.72-16.09 6.26-5.77 12.2-15.9 14.19-26.45 15.61 2.99 31.04 6.92 46.21 11.78 18.54 5.94 38.39 8.96 59.01 8.52 96.73-2.07 175.39-81.36 176.73-178.12 0.57-40.75-12.35-78.43-34.57-108.91z"/>
		</clipPath>
	</defs>
	<style>
		.s0 { fill: #808080 } 
		.s1 { opacity: .3;mix-blend-mode: overlay;fill: #ffffff } 
		.s2 { fill: #3f4040 } 
		.s3 { fill: #c49d86 } 
		.s4 { fill: #d4b29f } 
		.s5 { opacity: .2;mix-blend-mode: overlay;fill: #272525 } 
		.s6 { fill: #b08871 } 
		.s7 { fill: #f48ca7 } 
		.s8 { fill: #e06386 } 
		.s9 { opacity: .3;mix-blend-mode: overlay;fill: #272525 } 
		.s10 { fill: #e3d6cf } 
		.s11 { fill: #ff456d } 
		.s12 { fill: #805d55 } 
		.s13 { fill: #1f1f3d } 
		.s14 { fill: #96725d } 
		.s15 { fill: #ffffff } 
		.s16 { fill: #5ac77e } 
		.s17 { fill: none;stroke: #ffc738;stroke-width: 1.2 } 
	</style>
	<g id="BACKGROUND">
		<path id="&lt;Path&gt;" class="s0" d="m600 0v605h-600-307.3v-605h307.3z"/>
		<g id="&lt;Group&gt;">
			<path id="&lt;Path&gt;" class="s1" d="m45.3 0c-18.4 45.6-53.6 84.4-97.7 106.4-27.7 13.8-58.5 21.2-85.6 36.4-27.8 15.7-50.4 38.9-75.6 58.6-27.6 21.6-59.9 41.3-93.7 53.3v-254.7z"/>
			<path id="&lt;Path&gt;" class="s1" d="m-151.5 605c16.4-11.4 32.5-24.2 49.1-34 39.2-23.1 85.5-41.4 129.4-29.7 17.9 4.7 34.1 14.2 50.2 23.5q19.8 11.6 39.5 23.1c10 5.8 20.2 11.8 30.6 17.1z"/>
		</g>
	</g>
	<g id="OBJECTS">
		<g id="&lt;Group&gt;">
			<path id="&lt;Path&gt;" class="s2" d="m512.5 248.4c-28.4-24.6-54.8-51.8-76.7-82.4-27.2-38.3-71.9-63.3-122.5-63.3-48.6 0-91.9 23.1-119.3 58.9-23.5 30.5-52.5 56.2-83.9 78.5-42.9 30.5-66.9 81-69.3 137.9-2.1 50.8 33.3 111.7 62.2 126.3 28.9 14.7 60.6 33.1 97 34.5q5.1 0.1 10.1 0c43.7-1.3 87.5 5.1 129.2 18.5 18.5 5.9 38.4 8.9 59 8.5 96.7-2.1 175.4-81.4 176.7-178.1 0.8-55.7-23.6-105.6-62.5-139.3z"/>
			<g id="Clip-Path: &lt;Clip Group&gt;" clip-path="url(#cp1)">
				<g id="&lt;Clip Group&gt;">
					<g id="&lt;Group&gt;">
						<path id="&lt;Path&gt;" class="s3" d="m514.9 605.3h-371.1c0 0 2.3-31.5 11.1-74.8 3.4-17.2 6.9-32.3 10.2-45.5 5-20.5 9.8-36.6 14.1-49.3q1.6-4.8 3.1-9c9.9-27 16.5-33.9 16.5-33.9l250.8 7 4.3 13.7 3.1 9.6z"/>
						<path id="&lt;Path&gt;" class="s4" d="m449.9 605.3h-217.5c-2.7-39.1 11.5-112.7 34.9-119.2 28.3-8 47.4 15.8 73.3 16.5 22.8 0.6 58-34.3 81-5.4 16.5 21 25 78 28.3 108.1z"/>
						<path id="&lt;Path&gt;" class="s5" d="m264.4 469.5c23.1 9.3 46.7 16 67.1 15.9 41.4-0.2 90.5-40.6 122.4-71.9l-4.3-13.7-250.8-7c0 0-6.6 6.9-16.5 33.9 12.5 7.8 29 17.6 47.4 26.9-23.4 1.4-49.8 19.5-64.6 31.4-3.3 13.2-6.8 28.3-10.2 45.5-8.8 43.3-11.1 74.8-11.1 74.8h266c-63.5-31.8-115.4-105.4-145.4-135.8z"/>
						<path id="&lt;Path&gt;" class="s6" d="m278.9 572c-7 6.4-20.8 14.5-34.5 16.3l0.1 0.9 2.4 16.5h-110.1c0 0 0.5-10.8 1.7-26.3 0.7-8 1.5-17.2 2.4-26.9 3.2-31.2 8.3-66.7 15.4-77.7q1.2-1.8 2.6-3.6c14.9-18.6 45.5-28.9 63-21.4 18.6 7.9 61.5 60.3 69.1 75.8 7.5 15.6-1.8 36.9-12.1 46.4z"/>
						<path id="&lt;Path&gt;" class="s5" d="m246.9 605.7l-2.4-16.5c-25.4-1.6-43.1-23.9-53.8-39.7-0.7-2.5-2.2-5-4.5-7.7-19.3-23-25.5-56.6-27.3-70.6q-1.4 1.8-2.6 3.6c-7.1 11-12.2 46.5-15.4 77.7-0.9 9.7-1.7 18.9-2.4 26.9-1.2 15.5-1.7 26.3-1.7 26.3z"/>
						<g id="&lt;Group&gt;">
							<g id="&lt;Group&gt;">
								<g id="&lt;Group&gt;">
									<g id="&lt;Group&gt;">
										<path id="&lt;Path&gt;" class="s6" d="m194 168.9c-7 9.9-20.2 39.6-24.3 52.3-0.8 2.7-2.9 8-5.5 15.2-2.6 6.9-5.7 15.3-8.9 24.8-6.8-0.6-18.4-2.1-27.3-5.6-6.9-2.8-9.6-11.1-10.5-18.4q-0.1-0.1 0-0.2-0.2-0.9-0.3-1.7-0.8 0.4-1.7 0.8c-4.6 2.3-10.6 5.2-17.3 8.6-1.9 0.9-3.6 1.7-5.2 2.4-11.6 5.4-17.6 5.1-14.1-23.7 4.1-32.9 32.9-66.3 56.2-71.8 8-2 18.2-0.1 28.1 3.2 12.2 4 24 10.2 30.8 14.1z"/>
									</g>
									<path id="&lt;Path&gt;" class="s7" d="m161.7 236.4c-2.5 6.9-5.7 15.3-8.8 24.8-6.8-0.6-18.4-2.1-27.3-5.6-6.9-2.8-9.6-11.1-10.6-18.4q0-0.1 0-0.2-0.1-0.9-0.2-1.7-0.8 0.4-1.7 0.8c-4.6 2.3-10.6 5.2-17.4 8.6-1.8 0.9-3.5 1.7-5.2 2.4 4.8-9.9 14.5-25.2 24-31.1 7.3-4.4 12.8-7.8 18.7-6.4 4.3 1.1 8.8 4.7 14.4 12.3 6 8.2 10.6 12.4 14.1 14.5z"/>
								</g>
								<g id="&lt;Group&gt;">
									<path id="&lt;Path&gt;" class="s6" d="m518.5 268.7c-2.9 2.5-6.7 3.4-11 3.4-4.1 0-8.6-0.7-12.7-1.8-7.1-1.9-13.5-4.6-16.4-6-1.2-0.5-1.8-0.9-1.8-0.9 0 0-0.4 0.7-1.1 1.7-2 2.9-6.8 8.9-12.2 9.1-3.6 0.1-7.4-0.6-11.1-1.6-2.6-9.6-5.3-19.5-8.1-29-7.4-25.8-15.3-49.5-21.1-60.6q-0.7-1.4-1.4-2.7c7.2-2.4 17.7-5.3 27.6-6 4.5-0.4 8.9-0.2 12.8 0.5 19.2 4 30.4 11.1 42.7 33.7 12.3 22.5 20.9 54.4 13.8 60.2z"/>
								</g>
								<path id="&lt;Path&gt;" class="s7" d="m507.5 272.1c-4.1 0-8.6-0.7-12.7-1.8-7.1-1.9-13.5-4.6-16.4-6-1.2-0.5-1.8-0.9-1.8-0.9 0 0-0.4 0.7-1.1 1.7-2 2.9-6.8 8.9-12.2 9.1-3.6 0.1-7.4-0.6-11.1-1.6-2.6-9.6-5.3-19.5-8.1-29 8.4-3 19.4-6.5 28.6-8.4 6.2-1.4 11.6-2 14.8-1.2 8.6 2.1 16.3 24.8 20 38.1z"/>
								<g id="&lt;Group&gt;">
									<g id="&lt;Group&gt;">
										<path id="&lt;Path&gt;" class="s8" d="m485 249c-0.1 0.1-0.7 2.2-1.8 5.1-1.1 2.9-2.7 6.6-4.8 10.2q-0.1 0-0.1 0.1c-0.4 0.6-1 1-1.7 1-0.4 0-0.8-0.2-1.1-0.3-0.5-0.4-0.8-1-0.8-1.7 0-0.3 0.1-0.8 0.3-1.1 2.8-4.6 4.7-9.7 5.6-12.4 0.4-1.2 0.6-2 0.6-2 0.3-1 1.4-1.6 2.4-1.3 1.1 0.3 1.6 1.4 1.4 2.4z"/>
									</g>
								</g>
								<g id="&lt;Group&gt;">
									<path id="&lt;Path&gt;" class="s8" d="m116.7 235.1c0.2 1-0.6 2-1.7 2.1q0 0 0 0-0.1 0-0.1 0h-0.1c-0.7 0-1.4-0.4-1.7-1.1-0.1-0.2-0.2-0.4-0.2-0.6-0.6-6.2-0.2-15.6-0.2-16 0-1 1-1.9 2-1.8 1.1 0 1.9 0.9 1.9 2 0 0.1-0.4 9.2 0.1 15q0 0.2 0 0.4z"/>
								</g>
								<path id="&lt;Path&gt;" class="s9" d="m494.8 270.3c-7.1-1.9-13.5-4.6-16.4-6q-0.1 0-0.1 0.1c-0.4 0.6-1 1-1.7 1-0.4 0-0.8-0.2-1.1-0.3-2 2.9-6.8 8.9-12.2 9.1-3.6 0.1-7.4-0.6-11.1-1.6-2.6-9.6-5.3-19.5-8.1-29-7.4-25.8-15.3-49.5-21.1-60.6q-0.7-1.4-1.4-2.7c7.2-2.4 17.7-5.3 27.6-6 4.7 15.6 12.6 39 23.5 60.9q3.7 7.5 7.9 14.7c0.9 1.4 1.7 2.8 2.6 4.2 3.6 5.8 7.4 11.3 11.6 16.2z"/>
								<path id="&lt;Path&gt;" class="s9" d="m191.6 168.9c-7.1 9.9-20.2 39.6-24.3 52.3-0.8 2.7-2.9 8-5.6 15.2-2.5 6.9-5.7 15.3-8.8 24.8-6.8-0.6-18.4-2.1-27.3-5.6-6.9-2.8-9.6-11.1-10.6-18.4q0 0 0 0-0.1 0-0.1 0 0-0.1 0.1-0.2 0.8-1.1 1.7-2.3c5.8-7.6 11.3-16.2 16.5-25.1 11.1-18.7 20.6-38.7 27.6-54.8 12.2 4 24 10.2 30.8 14.1z"/>
							</g>
							<path id="&lt;Path&gt;" class="s3" d="m441 408c-27.7 15.1-53.9 33-116.9 36.7-33.4 2.1-85.2-5.5-122.9-23.8-33.5-16.2-54.8-41.7-59.9-62.1-1.3-5.3-2-11.1-2.1-17.4-0.4-24.9 8-55.8 16.1-80.2 6.5-19.4 12.8-34.8 14.4-40 4.1-12.7 17.3-42.4 24.3-52.3q0.4-0.6 0.8-1.1c5.8-7.6 12.2-12.9 19.1-16.6 21.9-11.8 48.4-6.7 75.5-3.7 8.3 0.9 16.6 1.6 24.9 1.6 43 0 88.5-5.4 109.7 31.2q0.7 1.3 1.4 2.7c8 15.3 19.9 54.2 29.2 89.6 3.8 14.7 7.3 28.8 9.7 40.3 2 9.2 3.4 16.8 4 21.8 3.1 26.2 0.4 58.1-27.3 73.3z"/>
							<path id="&lt;Path&gt;" class="s10" d="m438.6 406.7c-27.7 15.2-53.9 33.1-116.9 36.8-33.4 2.1-85.2-5.5-122.9-23.8-33.6-16.2-54.8-41.8-59.9-62.1-1.4-5.3-2-11.1-2.1-17.4 4.6-16.2 15.3-30.3 24.9-38.4 21-17.6 34.4 7.1 61.4-7.8 46.5-25.7 93.3-21 93.3-21 41.2 2.5 83.1 20.4 99.8 28.8 16.5 8.3 27.3-6.2 45.7 9.9 2 9.2 3.4 16.8 3.9 21.8 3.1 26.2 0.5 58.1-27.2 73.2z"/>
							<g id="&lt;Group&gt;">
								<path id="&lt;Path&gt;" class="s11" d="m441.3 336.4c-0.9 20.1-14.8 65.6-71.6 82-13.1 3.8-28.4 5.9-46.5 5.9-13.8 0-26.2-0.9-37.4-2.6-15.1-2.3-27.9-5.9-38.9-10.5-62.4-25.9-63.9-81.2-63.9-81.2 0 0 13.5-19 16.7-10.3 3.3 8.8 40.2 39.7 63.6 43.7 22.3 3.8 48.1-1.6 54.6-9.2 8.8 8.9 31.7 27.8 58.8 16.8 34.9-14 48.1-42.4 53.2-41.9 4 0.4 8.5 5.3 11.4 7.3z"/>
								<g id="&lt;Group&gt;">
									<path id="&lt;Path&gt;" class="s7" d="m372.3 438.9c0.2 20.5-7.3 42.8-36.2 42.3-34.2-0.6-45.5-38.2-49.9-57.6q-0.2-0.9-0.4-1.9-1-0.1-2.1-0.3c-12.7-2.1-23.9-5.2-33.6-8.9q-1.6-0.6-3.2-1.3c5.4-3.6 18.5-12 30.4-17 4-1.7 7.9-3.1 11.3-3.7 13.3-2.4 24 3.4 30.5 3.5q1 0 1.8-0.1 1.1-0.3 2.1-0.5c24.4-5 37.1 0 44.3 17.5 0.8 2 1.7 4.6 2.4 7.5 1.4 5.8 2.6 13 2.6 20.5z"/>
									<g id="&lt;Group&gt;">
										<path id="&lt;Path&gt;" class="s8" d="m286.2 423.6q-0.2 0.1-0.4 0.1c-0.9 0-1.7-0.7-1.9-1.6q0-0.4-0.2-0.7-0.3-1.8-0.6-3.3c-0.5-2.1-0.9-4.3-1.1-4.8-0.5-0.9-0.1-2.1 0.8-2.5 0.4-0.2 0.7-0.2 1.1-0.2 0.6 0 1.2 0.4 1.5 1 0.4 0.8 0.7 2.3 1.5 5.7q0 0.4 0.1 0.7 0.3 1.5 0.7 3.3c0.2 1.1-0.5 2.1-1.5 2.3z"/>
									</g>
									<g id="&lt;Group&gt;">
										<path id="&lt;Path&gt;" class="s8" d="m336.2 437.1c-0.9 0-1.7-0.8-1.9-1.7-3.4-25-14.8-40.2-14.9-40.3-0.7-0.9-0.5-2.1 0.4-2.8 0.8-0.6 2-0.4 2.7 0.4 0.5 0.6 12.1 16.1 15.7 42.2 0.1 1-0.6 2-1.7 2.2q-0.1 0-0.3 0z"/>
									</g>
									<path id="&lt;Path&gt;" class="s9" d="m372.3 438.9c0.2 20.5-7.3 42.8-36.2 42.3-34.2-0.6-45.5-38.2-49.9-57.6q-0.2 0.1-0.4 0.1c-0.9 0-1.7-0.7-1.9-1.6q0-0.4-0.2-0.7c-12.7-2.1-23.9-5.2-33.6-8.9q-1.6-0.6-3.2-1.3c5.4-3.6 18.5-12 30.4-17 2.3 4.6 5 10.8 6.6 16.4q0.5 2 0.9 3.9c0.1 1 0.9 2.2 2.2 3.5 10.8 10.9 57.3 28.4 85.3 20.9z"/>
								</g>
								<g id="&lt;Group&gt;">
									<path id="&lt;Path&gt;" class="s3" d="m360 375.9c-20.2 0-36.2-13.6-43.2-20.6-0.5-0.6-0.5-1.6 0.1-2.2 0.5-0.6 1.5-0.6 2 0 8.4 8.6 30.9 27.2 57.2 16.6 23.2-9.3 36.5-24.9 44.5-34.2 4.5-5.2 7-8.1 9.4-7.8 3.5 0.3 7 3.2 9.8 5.6 0.9 0.7 1.7 1.4 2.3 1.9 0.7 0.5 0.9 1.4 0.4 2-0.5 0.8-1.4 0.9-2.1 0.4-0.7-0.6-1.6-1.3-2.5-2-2.5-2.1-5.6-4.7-8.2-5-1.1 0.1-4.1 3.7-6.9 6.9-8.1 9.5-21.8 25.4-45.5 34.9-6 2.5-11.8 3.5-17.3 3.5z"/>
								</g>
								<g id="&lt;Group&gt;">
									<path id="&lt;Path&gt;" class="s3" d="m278.6 366.1c-5.3 0-10.6-0.4-15.6-1.3-22.8-3.9-61-34.7-64.7-44.6-0.4-1.2-0.9-1.2-1.1-1.2-2.9-0.4-9.3 6.7-13 11.8-0.4 0.7-1.4 0.9-2 0.4-0.7-0.5-0.8-1.4-0.4-2.1 1.7-2.3 10.2-13.9 15.8-13.1 1.1 0.1 2.7 0.8 3.5 3.2 3 8.1 39.7 38.8 62.4 42.7 22.2 3.8 47.3-1.7 53.3-8.7q0.3-0.4 0.6-0.8c4.7-7.8 5.1-33.7 5.1-34 0-0.8 0.7-1.4 1.5-1.5 0.8 0 1.5 0.7 1.5 1.5 0 1.1-0.5 27.1-5.5 35.5q-0.5 0.6-1 1.2c-5.6 6.7-23 11-40.4 11z"/>
								</g>
								<g id="&lt;Group&gt;">
									<path id="&lt;Path&gt;" class="s12" d="m364.6 294.2c-0.2 1.4-0.6 2.8-1.3 4.3-4.5 9.6-19.3 20.6-31.8 24.9-4.3 1.5-8.4 2.2-11.7 1.7q-1.5-0.3-3-0.6c-13.2-3.1-32.2-13.8-39.5-25-1.6-2.4-2.6-4.9-2.9-7.3-1.8-14.6 17.5-27.1 41.6-27.1 46.5 0 49.4 22.5 48.6 29.1z"/>
									<path id="&lt;Path&gt;" class="s9" d="m316.8 324.5c-13.3-3.1-32.2-13.8-39.5-25 3-1.6 8.8-2.4 19.6 2 12.5 5.1 16.9 15.6 19.9 23z"/>
									<path id="&lt;Path&gt;" class="s9" d="m363.3 298.5c-4.5 9.6-19.3 20.6-31.8 24.9 4.5-6.4 9.4-14.5 14-18.2 5.6-4.6 13.4-6.2 17.8-6.7z"/>
								</g>
								<g id="&lt;Group&gt;">
									<g id="&lt;Group&gt;">
										<path id="&lt;Path&gt;" class="s3" d="m372.4 319.9c4.1 0 4.1-6.5 0-6.5-4.2 0-4.2 6.5 0 6.5z"/>
									</g>
									<g id="&lt;Group&gt;">
										<path id="&lt;Path&gt;" class="s3" d="m400 315.9c4.2 0 4.2-6.4 0-6.4-4.1 0-4.1 6.4 0 6.4z"/>
									</g>
									<g id="&lt;Group&gt;">
										<path id="&lt;Path&gt;" class="s3" d="m391.5 337c4.1 0 4.1-6.5 0-6.5-4.2 0-4.2 6.5 0 6.5z"/>
									</g>
								</g>
								<g id="&lt;Group&gt;">
									<g id="&lt;Group&gt;">
										<path id="&lt;Path&gt;" class="s3" d="m267.3 319.9c-4.2 0-4.2-6.5 0-6.5 4.2 0 4.2 6.5 0 6.5z"/>
									</g>
									<g id="&lt;Group&gt;">
										<path id="&lt;Path&gt;" class="s3" d="m239.6 315.9c-4.1 0-4.2-6.4 0-6.4 4.2 0 4.2 6.4 0 6.4z"/>
									</g>
									<g id="&lt;Group&gt;">
										<path id="&lt;Path&gt;" class="s3" d="m248.2 337c-4.2 0-4.2-6.5 0-6.5 4.1 0 4.1 6.5 0 6.5z"/>
									</g>
								</g>
							</g>
							<g id="&lt;Group&gt;">
								<path id="&lt;Path&gt;" class="s13" d="m206.2 279.8l-6.7-7.6c-1.2-1.3-1-3.5 0.5-4.6 17.3-13.2 37.3-9.4 45.1-7.2 1.9 0.5 2.8 2.4 2.1 4.2l-1.8 4.4-1.8 4.9c-0.6 1.6-2.2 2.3-3.8 2-5.5-1.5-18.4-3.7-29.4 4.3-1.3 1-3.1 0.8-4.2-0.4z"/>
							</g>
							<g id="&lt;Group&gt;">
								<path id="&lt;Path&gt;" class="s13" d="m381.4 275.5l-4.6-9.1c-0.8-1.6-0.1-3.6 1.6-4.3 20-8.5 38.6 0.2 45.5 4.3 1.7 0.9 2.1 3 1 4.5l-2.8 4-3.1 4.2c-0.9 1.3-2.7 1.7-4.1 1-4.9-2.8-17-8.2-29.6-3.2-1.5 0.6-3.2 0-3.9-1.4z"/>
							</g>
							<path id="&lt;Path&gt;" class="s14" d="m308 170.2c0.2 13.8-36 51.8-46.6 56.9-10.6 5.2-19.2-0.7-26.5-8.7-7.5-8-16.2 2.7-24-11-6.1-10.8-5.3-37.7 0.5-56.2 22-11.8 48.4-6.7 75.6-3.7 10 6.4 20.9 15.1 21 22.7z"/>
						</g>
						<g id="&lt;Group&gt;">
							<g id="&lt;Group&gt;">
								<path id="&lt;Path&gt;" class="s12" d="m239.1 590.2q-3.6 0-6.9-0.7c-2.4-0.5-4.7-1.2-6.7-2.2h-0.2c-0.2-0.1-0.5-0.3-0.8-0.4-4.2-2-8.4-5.2-13-9.6q-0.2-0.2-0.4-0.4c-12.5-12.1-24.4-30.8-34-45.8l-3.3-5.1c-0.5-0.9-0.3-2.1 0.6-2.7 0.9-0.5 2.2-0.3 2.7 0.6l3.3 5.1c9.5 14.8 21.3 33.3 33.5 45.2l0.3 0.2c4.3 4.2 8.3 7.2 12 9.1 0.3 0.1 0.5 0.1 0.7 0.3h0.2c1.8 0.9 3.8 1.5 5.8 1.9 3.4 0.7 7.2 0.7 11.1 0.2 1.1-0.1 2 0.6 2.2 1.7 0.1 1.1-0.7 2.1-1.7 2.2q-2.8 0.4-5.4 0.4z"/>
							</g>
							<g id="&lt;Group&gt;">
								<path id="&lt;Path&gt;" class="s12" d="m256.5 586.7c-1 0-1.9-0.8-1.9-1.8-1.4-21-28.5-41.6-28.7-41.9-0.8-0.6-1-1.8-0.4-2.6 0.6-0.9 1.9-1 2.7-0.4 1.2 0.9 28.8 21.9 30.2 44.7 0.1 1-0.7 2-1.8 2q0 0-0.1 0z"/>
							</g>
							<g id="&lt;Group&gt;">
								<path id="&lt;Path&gt;" class="s12" d="m285.1 566q0 0-0.1 0c-1-0.1-1.9-1-1.8-2 0.9-16.6-30-37.2-30.3-37.4-0.9-0.6-1.1-1.8-0.5-2.7 0.5-0.9 1.8-1.1 2.7-0.6 1.3 0.9 33 22.1 32 40.9-0.1 1-1 1.8-2 1.8z"/>
							</g>
						</g>
						<g id="&lt;Group&gt;">
							<path id="&lt;Path&gt;" class="s6" d="m568.7 605.3h-131.3c0 0-1.7-20.8-3.9-46-0.9-10.1-1.9-20.9-2.8-31.4-2.5-27.7-4.9-53-5.6-56.4-1.7-7.9-18.2-18.8-9.1-32.5 9.1-13.6 25-16 24.2-29.7-0.8-13.6 5.8-29.3 13.7-34.1 7.8-4.8 19.2-0.3 28 0 8.9 0.3 14.7-3.8 28.3 1.5 13.7 5.3 13.2 10 17.5 13 4.4 3.1 18.4 7.6 20.9 20.1 2.5 12.6 0.9 24.2 2.5 29.2 0.9 3.3 0.8 10-1.5 17.7-1.3 4.4-3.4 9.1-6.3 13.7-7.1 10.8-5.1 19.2-3.4 30.8 0.2 1.8 0.5 3.7 0.7 5.8 1.5 14.8 28.1 98.3 28.1 98.3z"/>
							<g id="&lt;Group&gt;">
								<path id="&lt;Path&gt;" class="s12" d="m413.3 450.2c-0.5 0-1-0.4-1.1-0.9-1.6-5.9 3.7-14.8 13.2-21.6 15.3-9.2 13.7-19.4 13.5-19.8-0.1-0.7 0.4-1.3 1-1.5 0.7-0.1 1.3 0.3 1.5 1 0 0.5 2.1 12.3-14.7 22.3-9.4 6.9-13.3 14.9-12.2 18.9 0.2 0.7-0.2 1.3-0.9 1.5q-0.1 0.1-0.3 0.1z"/>
							</g>
							<path id="&lt;Path&gt;" class="s7" d="m463.9 397.1c0.8-1.2 1.7-2.3 3.1-3.2 1.3-0.8 3.1-1.4 5-1.1 1.8 0.3 3.2 1.4 4.4 2.4 3.7 3.6 5.5 8.2 5.2 12.7-0.3 4.4-2.6 8.6-6.1 12.2-3.1 3.1-10.2 6.8-13.7 1.8-3.3-4.8-3-11.2-1.7-16.2 0.7-3 2-5.9 3.8-8.6z"/>
							<path id="&lt;Path&gt;" class="s7" d="m439.3 439.8c0.8-1.2 1.6-2.4 2.9-3.4 1.3-0.9 3.1-1.5 5-1.2 1.8 0.2 3.2 1.1 4.4 2.2 4 3.4 6 7.9 5.8 12.4-0.1 4.4-2.1 8.7-5.5 12.4-2.9 3.2-9.9 7.3-13.6 2.5-3.5-4.6-3.4-11.1-2.5-16.2 0.7-3 1.9-5.9 3.5-8.7z"/>
							<path id="&lt;Path&gt;" class="s7" d="m498.4 395.6c0.8-1.1 1.6-2.2 2.9-3 1.3-0.7 3-1.2 4.6-0.9 1.7 0.2 3 1.2 4.1 2.2 3.5 3.3 5.1 7.6 4.9 11.7-0.3 4.1-2.4 8.1-5.7 11.4-2.8 2.8-9.4 6.3-12.7 1.7-3.1-4.5-2.7-10.4-1.6-15.1 0.7-2.8 1.9-5.4 3.5-8z"/>
							<path id="&lt;Path&gt;" class="s7" d="m524 416.5c0.7-1 1.5-2.1 2.8-2.9 1.3-0.8 3-1.3 4.7-1.1 1.6 0.3 3 1.3 4 2.3 3.5 3.3 5.2 7.6 4.9 11.7-0.3 4.1-2.4 8.1-5.7 11.4-2.8 2.8-9.4 6.4-12.7 1.7-3-4.4-2.7-10.5-1.6-15.1 0.7-2.8 1.9-5.5 3.6-8z"/>
							<path id="&lt;Path&gt;" class="s7" d="m464.8 445.9c8.5-12.5 35-18.5 50.1-4.3 15.1 14.2 4.7 36.7-7.7 33.4-12.4-3.3-20.2-0.5-32.8-3.3-12.7-2.8-14.1-19.4-9.6-25.8z"/>
							<g id="&lt;Group&gt;">
								<path id="&lt;Path&gt;" class="s5" d="m568.7 605.3h-131.3c0 0-1.7-20.8-3.9-46-0.9-10.1-1.9-20.9-2.8-31.4 48.3-16.9 90.4-47 118.9-71.2-1.3 4.4-3.4 9.1-6.3 13.7-7.1 10.8-5.1 19.2-3.4 30.8 0.2 1.8 0.5 3.7 0.7 5.8 1.5 14.8 28.1 98.3 28.1 98.3z"/>
							</g>
						</g>
					</g>
				</g>
			</g>
		</g>
		<g id="&lt;Group&gt;">
			<g id="&lt;Group&gt;">
				<path id="&lt;Path&gt;" class="s15" d="m513.9 317.4l1.8 3.1c0.2 0.3 0.4 0.4 0.7 0.5l3.5 0.8c0.7 0.1 0.9 0.9 0.5 1.5l-2.4 2.7c-0.2 0.2-0.3 0.5-0.3 0.7l0.4 3.6c0.1 0.7-0.7 1.2-1.3 0.9l-3.4-1.4q-0.3-0.1-0.6 0l-3.5 1.4c-0.6 0.3-1.2-0.2-1.2-0.9l0.3-3.6q0.1-0.4-0.2-0.7l-2.4-2.7c-0.4-0.6-0.2-1.4 0.5-1.5l3.6-0.8q0.3-0.1 0.5-0.5l2-3.1c0.3-0.6 1.1-0.6 1.5 0z"/>
			</g>
			<g id="&lt;Group&gt;">
				<path id="&lt;Path&gt;" class="s15" d="m190.9 81.8l1.9 3.1c0.2 0.2 0.4 0.4 0.6 0.5l3.6 0.8c0.7 0.1 0.9 0.9 0.5 1.4l-2.4 2.8c-0.2 0.2-0.3 0.4-0.3 0.7l0.4 3.6c0 0.7-0.6 1.2-1.3 1l-3.4-1.5c-0.2-0.1-0.5-0.1-0.6 0l-3.4 1.5c-0.7 0.2-1.4-0.3-1.3-1l0.4-3.6c0-0.3-0.1-0.5-0.3-0.7l-2.4-2.8c-0.4-0.5-0.2-1.3 0.5-1.4l3.6-0.8c0.2-0.1 0.4-0.3 0.5-0.5l1.9-3.1c0.4-0.6 1.2-0.6 1.5 0z"/>
			</g>
			<g id="&lt;Group&gt;">
				<path id="&lt;Path&gt;" class="s15" d="m104.3 356.9l1.8 3.2q0.2 0.3 0.6 0.4l3.6 0.9c0.7 0.1 0.9 0.9 0.5 1.4l-2.4 2.8c-0.2 0.2-0.3 0.4-0.3 0.6l0.3 3.7c0.1 0.7-0.6 1.1-1.2 0.9l-3.3-1.4q-0.4-0.1-0.8 0l-3.4 1.4c-0.6 0.2-1.2-0.2-1.2-0.9l0.3-3.7c0.1-0.2 0-0.4-0.2-0.6l-2.4-2.8c-0.5-0.5-0.2-1.3 0.5-1.4l3.6-0.9q0.3-0.1 0.5-0.4l2-3.1c0.3-0.7 1.1-0.7 1.5 0z"/>
			</g>
			<path id="&lt;Path&gt;" class="s16" d="m55.5 285.7l2.5 4.2q0.3 0.4 0.7 0.5l4.8 1.1c0.9 0.2 1.2 1.3 0.6 1.9l-3.2 3.7c-0.2 0.3-0.3 0.6-0.2 0.9l0.4 4.8c0 0.9-0.9 1.5-1.6 1.2l-4.5-1.9c-0.3-0.1-0.7-0.1-0.9 0l-4.6 1.9c-0.7 0.3-1.7-0.3-1.5-1.2l0.4-4.8c0-0.3-0.1-0.6-0.3-0.9l-3.2-3.7c-0.6-0.6-0.3-1.7 0.6-1.9l4.8-1.1q0.4-0.1 0.7-0.5l2.5-4.2c0.5-0.7 1.5-0.7 2 0z"/>
			<path id="&lt;Path&gt;" class="s16" d="m472.7 111.7l2.5 4.2q0.2 0.5 0.7 0.6l4.8 1.1c0.8 0.1 1.2 1.2 0.6 1.9l-3.2 3.6c-0.2 0.3-0.3 0.6-0.3 0.9l0.4 4.9c0.1 0.8-0.8 1.5-1.6 1.1l-4.5-1.9c-0.3-0.1-0.6-0.1-0.9 0l-4.5 1.9c-0.8 0.4-1.7-0.3-1.6-1.1l0.4-4.9q0-0.5-0.3-0.9l-3.2-3.6c-0.5-0.7-0.2-1.8 0.6-1.9l4.8-1.1q0.5-0.1 0.7-0.6l2.6-4.2c0.4-0.7 1.5-0.7 2 0z"/>
			<path id="&lt;Path&gt;" class="s16" d="m544.1 528.8l2.5 4.1c0.1 0.3 0.4 0.5 0.7 0.6l4.7 1.1c0.9 0.2 1.2 1.2 0.7 1.9l-3.2 3.6c-0.2 0.3-0.3 0.6-0.3 0.9l0.4 4.9c0.1 0.8-0.8 1.5-1.6 1.1l-4.5-1.8q-0.4-0.2-0.9 0l-4.5 1.8c-0.8 0.4-1.7-0.3-1.6-1.1l0.4-4.9c0.1-0.3 0-0.6-0.3-0.9l-3.1-3.6c-0.6-0.7-0.3-1.7 0.6-1.9l4.7-1.1c0.3-0.1 0.6-0.3 0.8-0.6l2.5-4.1c0.4-0.8 1.5-0.8 2 0z"/>
			<path id="&lt;Path&gt;" fill-rule="evenodd" class="s17" d="m538.4 179.1l2.5 4.2q0.3 0.5 0.7 0.6l4.8 1c0.9 0.2 1.2 1.3 0.6 2l-3.2 3.6c-0.2 0.3-0.3 0.6-0.2 0.9l0.4 4.9c0.1 0.8-0.9 1.5-1.6 1.1l-4.5-1.9c-0.3-0.1-0.7-0.1-0.9 0l-4.5 1.9c-0.8 0.4-1.7-0.3-1.6-1.1l0.4-4.9c0-0.3-0.1-0.6-0.3-0.9l-3.2-3.6c-0.6-0.7-0.3-1.8 0.6-2l4.8-1q0.4-0.1 0.7-0.6l2.5-4.2c0.5-0.7 1.5-0.7 2 0z"/>
			<path id="&lt;Path&gt;" fill-rule="evenodd" class="s17" d="m73.9 103.1l2.5 4.2c0.1 0.3 0.4 0.5 0.7 0.5l4.7 1.1c0.9 0.2 1.2 1.3 0.6 1.9l-3.1 3.7c-0.2 0.3-0.3 0.6-0.3 0.9l0.4 4.8c0.1 0.9-0.8 1.5-1.6 1.2l-4.5-1.9q-0.4-0.2-0.9 0l-4.5 1.9c-0.8 0.3-1.7-0.3-1.6-1.2l0.4-4.8c0-0.3 0-0.6-0.3-0.9l-3.1-3.7c-0.6-0.6-0.3-1.7 0.6-1.9l4.7-1.1c0.3 0 0.6-0.2 0.7-0.5l2.6-4.2c0.4-0.7 1.5-0.7 2 0z"/>
			<path id="&lt;Path&gt;" fill-rule="evenodd" class="s17" d="m45.6 472.1l2.5 4.2c0.2 0.3 0.5 0.4 0.8 0.5l4.7 1.1c0.8 0.2 1.2 1.3 0.6 1.9l-3.2 3.7c-0.2 0.3-0.3 0.6-0.3 0.9l0.5 4.8c0 0.9-0.8 1.5-1.7 1.2l-4.4-1.9q-0.5-0.2-0.9 0l-4.5 1.9c-0.9 0.3-1.7-0.3-1.7-1.2l0.5-4.8c0-0.3-0.1-0.6-0.3-0.9l-3.2-3.7c-0.6-0.6-0.2-1.7 0.6-1.9l4.7-1.1c0.3-0.1 0.6-0.2 0.8-0.5l2.5-4.2c0.4-0.7 1.6-0.7 2 0z"/>
		</g>
		<g id="&lt;Group&gt;">
			<g id="&lt;Group&gt;">
				<g id="&lt;Group&gt;">
				</g>
			</g>
			<g id="&lt;Group&gt;">
				<g id="&lt;Group&gt;">
				</g>
				<g id="&lt;Group&gt;">
					<g id="&lt;Group&gt;">
					</g>
				</g>
			</g>
		</g>
	</g>
</svg>