<svg version="1.2" xmlns="http://www.w3.org/2000/svg" viewBox="0 0 496 554" width="496" height="554">
	<title>perrito-ai-svg</title>
	<defs>
		<clipPath clipPathUnits="userSpaceOnUse" id="cp1">
			<path d="m463.4 255.27v-22.09c0-63.01-51.12-114.09-114.19-114.09h-14.82c-22.41-15.75-49.72-25-79.2-25-29.48 0-56.79 9.25-79.2 25h-56.44c-63.06 0-114.19 51.08-114.19 114.09v112.95h0.04c1.36 61.47 40.21 114.33 94.52 136.34q0 0 0 0.01 0.25 0.09 0.51 0.19 1.44 0.58 2.9 1.13 0.52 0.2 1.04 0.4 1.52 0.55 3.05 1.08 0.41 0.15 0.84 0.29 1.86 0.63 3.76 1.21 0.67 0.21 1.34 0.4 1.24 0.37 2.49 0.73 0.86 0.23 1.71 0.46 1.1 0.29 2.21 0.57 0.87 0.22 1.75 0.43 1.21 0.28 2.43 0.55 0.74 0.17 1.48 0.33 4.12 0.85 8.32 1.48 0.04 0.01 0.08 0.02c8.11 12.59 17.72 26.83 27.74 36.54q0.15 0.16 0.33 0.33c4.2 4.03 8.09 6.91 11.93 8.83 0.24 0.12 0.49 0.25 0.68 0.33l0.16 0.07c1.93 0.87 4.01 1.54 6.18 1.96q3.02 0.59 6.3 0.59 2.42 0 4.94-0.32 0.05 0 0.08-0.02c0.83-0.13 1.41-0.79 1.46-1.59 12.1-2.02 23.9-9.11 30-14.74 5.74-5.28 11.18-14.55 13.01-24.21 14.31 2.74 28.45 6.33 42.35 10.78 17 5.44 35.2 8.21 54.1 7.81 88.67-1.9 160.77-74.51 162.01-163.11 0.52-37.31-11.33-71.82-31.7-99.73z"/>
		</clipPath>
	</defs>
	<style>
		.s0 { opacity: .3;mix-blend-mode: overlay;fill: #ffffff } 
		.s1 { fill: #3f4040 } 
		.s2 { fill: #c49d86 } 
		.s3 { fill: #d4b29f } 
		.s4 { opacity: .2;mix-blend-mode: overlay;fill: #272525 } 
		.s5 { fill: #b08871 } 
		.s6 { fill: #f48ca7 } 
		.s7 { fill: #e06386 } 
		.s8 { opacity: .3;mix-blend-mode: overlay;fill: #272525 } 
		.s9 { fill: #e3d6cf } 
		.s10 { fill: #ff456d } 
		.s11 { fill: #805d55 } 
		.s12 { fill: #1f1f3d } 
		.s13 { fill: #96725d } 
		.s14 { fill: #ffffff } 
		.s15 { fill: #5ac77e } 
		.s16 { fill: none;stroke: #ffc738;stroke-width: 1.1 } 
	</style>
	<g id="BACKGROUND">
		<g id="&lt;Group&gt;">
			<path id="&lt;Path&gt;" class="s0" d="m9.5 0c-16.9 41.7-49.2 77.3-89.5 97.4-25.5 12.7-53.7 19.4-78.5 33.4-25.5 14.3-46.2 35.6-69.3 53.6-25.3 19.8-54.9 37.9-85.9 48.8v-233.2z"/>
			<path id="&lt;Path&gt;" class="s0" d="m-170.9 554c15-10.5 29.8-22.2 45-31.1 36-21.1 78.4-37.9 118.6-27.2 16.4 4.3 31.4 12.9 46 21.5q18.2 10.6 36.3 21.2c9.2 5.3 18.5 10.7 28 15.6z"/>
		</g>
	</g>
	<g id="OBJECTS">
		<g id="&lt;Group&gt;">
			<path id="&lt;Path&gt;" class="s1" d="m437.8 227.5c-26.1-22.6-50.2-47.4-70.3-75.5-25-35.1-66-57.9-112.3-57.9-44.6 0-84.2 21.1-109.4 53.9-21.5 28-48.1 51.4-76.8 71.8-39.4 27.9-61.4 74.2-63.6 126.3-1.9 46.5 30.5 102.4 57 115.7 26.5 13.4 55.6 30.3 88.9 31.5q4.7 0.2 9.3 0c40-1.1 80.2 4.7 118.4 17 17 5.4 35.2 8.2 54.1 7.8 88.6-1.9 160.8-74.5 162-163.1 0.7-51-21.6-96.7-57.3-127.5z"/>
			<g id="Clip-Path: &lt;Clip Group&gt;" clip-path="url(#cp1)">
				<g id="&lt;Clip Group&gt;">
					<g id="&lt;Group&gt;">
						<path id="&lt;Path&gt;" class="s2" d="m440 554.3h-340.2c0 0 2.2-28.8 10.2-68.5 3.2-15.7 6.3-29.6 9.3-41.7 4.7-18.8 9-33.5 12.9-45.1q1.5-4.4 2.9-8.3c9.1-24.7 15.1-31 15.1-31l229.9 6.4 4 12.5 2.8 8.9z"/>
						<path id="&lt;Path&gt;" class="s3" d="m380.4 554.3h-199.3c-2.5-35.9 10.4-103.2 31.9-109.2 26-7.3 43.5 14.5 67.2 15.1 21 0.6 53.2-31.4 74.2-4.9 15.2 19.2 22.9 71.4 26 99z"/>
						<path id="&lt;Path&gt;" class="s4" d="m210.3 429.9c21.2 8.5 42.9 14.6 61.5 14.6 38-0.2 83-37.2 112.3-65.9l-4-12.5-229.9-6.4c0 0-6 6.3-15.1 31 11.4 7.1 26.6 16.1 43.5 24.7-21.5 1.3-45.7 17.8-59.3 28.7-3 12.1-6.1 26-9.3 41.7-8 39.7-10.2 68.5-10.2 68.5h243.9c-58.3-29.1-105.8-96.6-133.4-124.4z"/>
						<path id="&lt;Path&gt;" class="s5" d="m223.7 523.8c-6.5 5.8-19.1 13.3-31.7 14.9l0.1 0.8 2.2 15.2h-100.9c0 0 0.5-10 1.6-24.1 0.6-7.3 1.3-15.8 2.2-24.6 2.9-28.7 7.5-61.2 14.1-71.2q1.1-1.7 2.4-3.3c13.6-17.1 41.7-26.5 57.7-19.7 17.1 7.4 56.4 55.3 63.3 69.5 7 14.3-1.6 33.8-11 42.5z"/>
						<path id="&lt;Path&gt;" class="s4" d="m194.3 554.7l-2.2-15.2c-23.3-1.5-39.5-21.9-49.3-36.4-0.7-2.2-2-4.5-4.1-7-17.7-21-23.4-51.8-25-64.6q-1.3 1.6-2.4 3.3c-6.6 10-11.2 42.5-14.1 71.2-0.9 8.8-1.6 17.3-2.2 24.6-1.1 14.1-1.6 24.1-1.6 24.1z"/>
						<g id="&lt;Group&gt;">
							<g id="&lt;Group&gt;">
								<g id="&lt;Group&gt;">
									<g id="&lt;Group&gt;">
										<path id="&lt;Path&gt;" class="s5" d="m145.8 154.6c-6.4 9.1-18.5 36.3-22.2 48-0.8 2.4-2.7 7.3-5.1 13.9-2.4 6.3-5.2 14-8.1 22.7-6.2-0.6-16.9-2-25.1-5.2-6.3-2.5-8.7-10.1-9.6-16.8q-0.1-0.1 0-0.1-0.2-0.9-0.3-1.6-0.7 0.3-1.5 0.7c-4.2 2.1-9.8 4.8-15.9 7.8-1.7 0.9-3.3 1.6-4.8 2.3-10.6 4.9-16.1 4.7-12.8-21.8 3.7-30 30.1-60.6 51.4-65.7 7.4-1.8 16.7-0.1 25.8 2.9 11.2 3.7 22 9.4 28.2 12.9z"/>
									</g>
									<path id="&lt;Path&gt;" class="s6" d="m116.3 216.5c-2.4 6.3-5.3 14-8.1 22.7-6.2-0.6-16.9-2-25.1-5.2-6.3-2.5-8.8-10.1-9.6-16.8q-0.1-0.1 0-0.1-0.2-0.9-0.3-1.6-0.7 0.3-1.5 0.7c-4.2 2.1-9.8 4.8-15.9 7.8-1.8 0.9-3.3 1.6-4.8 2.3 4.3-9.1 13.3-23.1 22-28.5 6.7-4.1 11.7-7.2 17.1-5.8 4 0.9 8.1 4.2 13.2 11.2 5.5 7.5 9.7 11.3 13 13.3z"/>
								</g>
								<g id="&lt;Group&gt;">
									<path id="&lt;Path&gt;" class="s5" d="m443.3 246.1c-2.6 2.2-6.2 3-10.1 3.1-3.7 0-7.8-0.7-11.7-1.7-6.4-1.7-12.3-4.2-15-5.5-1.1-0.5-1.6-0.8-1.6-0.8 0 0-0.3 0.6-1 1.5-1.8 2.7-6.3 8.2-11.2 8.4-3.3 0.1-6.8-0.5-10.2-1.5-2.3-8.8-4.8-17.8-7.4-26.6-6.8-23.6-14-45.2-19.3-55.5q-0.7-1.2-1.4-2.4c6.6-2.2 16.3-4.8 25.4-5.5 4.1-0.3 8.1-0.2 11.7 0.5 17.6 3.6 27.9 10.1 39.1 30.8 11.3 20.6 19.2 49.8 12.7 55.2z"/>
								</g>
								<path id="&lt;Path&gt;" class="s6" d="m433.2 249.2c-3.7 0-7.8-0.7-11.7-1.7-6.4-1.7-12.3-4.2-15-5.5-1.1-0.5-1.6-0.8-1.6-0.8 0 0-0.3 0.6-1 1.5-1.8 2.7-6.3 8.2-11.2 8.4-3.3 0.1-6.8-0.5-10.2-1.5-2.3-8.8-4.8-17.8-7.4-26.6 7.7-2.7 17.8-5.9 26.2-7.7 5.7-1.2 10.6-1.7 13.6-1 7.9 1.9 14.9 22.6 18.3 34.9z"/>
								<g id="&lt;Group&gt;">
									<g id="&lt;Group&gt;">
										<path id="&lt;Path&gt;" class="s7" d="m412.5 228c0 0.1-0.6 2-1.6 4.7-1 2.6-2.5 6-4.4 9.3q-0.1 0-0.1 0.2c-0.3 0.5-0.9 0.8-1.5 0.8-0.3 0-0.7-0.1-1-0.3-0.4-0.3-0.8-0.8-0.8-1.5 0-0.3 0.1-0.7 0.4-1 2.4-4.3 4.2-8.9 5.1-11.4 0.3-1.1 0.5-1.8 0.5-1.8 0.3-0.9 1.3-1.5 2.2-1.2 1 0.3 1.5 1.3 1.2 2.2z"/>
									</g>
								</g>
								<g id="&lt;Group&gt;">
									<path id="&lt;Path&gt;" class="s7" d="m75 215.3c0.1 0.9-0.6 1.8-1.5 1.9q0 0-0.1 0-0.1 0-0.1 0h-0.1c-0.6 0-1.2-0.4-1.5-1-0.1-0.1-0.2-0.4-0.2-0.6-0.6-5.6-0.2-14.2-0.2-14.6 0-1 0.9-1.7 1.9-1.7 1 0.1 1.7 0.9 1.7 1.9-0.1 0.1-0.4 8.4 0.1 13.8q0 0.1 0 0.3z"/>
								</g>
								<path id="&lt;Path&gt;" class="s8" d="m421.5 247.5c-6.4-1.7-12.3-4.2-15-5.5q-0.1 0-0.1 0.2c-0.3 0.5-0.9 0.8-1.5 0.8-0.3 0-0.7-0.1-1-0.3-1.8 2.7-6.3 8.2-11.2 8.4-3.3 0.1-6.8-0.5-10.2-1.5-2.3-8.8-4.8-17.8-7.4-26.6-6.8-23.6-14-45.2-19.3-55.5q-0.7-1.2-1.4-2.4c6.6-2.2 16.3-4.8 25.4-5.5 4.3 14.3 11.5 35.7 21.5 55.7q3.4 6.9 7.3 13.5c0.7 1.3 1.5 2.6 2.3 3.9 3.4 5.3 6.9 10.3 10.6 14.8z"/>
								<path id="&lt;Path&gt;" class="s8" d="m143.6 154.6c-6.4 9.1-18.5 36.3-22.2 48-0.8 2.4-2.7 7.3-5.1 13.9-2.4 6.3-5.3 14-8.1 22.7-6.2-0.6-16.9-2-25.1-5.2-6.3-2.5-8.8-10.1-9.6-16.8q0 0-0.1 0-0.1 0-0.1 0 0-0.1 0.2-0.1 0.7-1.1 1.5-2.1c5.3-7.1 10.3-15 15.1-23 10.1-17.2 18.8-35.6 25.3-50.3 11.2 3.7 22 9.4 28.2 12.9z"/>
							</g>
							<path id="&lt;Path&gt;" class="s2" d="m372.2 373.6c-25.4 13.9-49.4 30.2-107.1 33.6-30.6 1.9-78.1-5-112.7-21.8-30.7-14.8-50.2-38.2-54.9-56.8-1.2-4.9-1.8-10.2-1.9-16-0.4-22.7 7.3-51.1 14.8-73.4 5.9-17.8 11.7-31.9 13.2-36.6 3.7-11.7 15.8-38.9 22.2-48q0.4-0.5 0.7-1c5.4-6.9 11.2-11.8 17.5-15.2 20.2-10.8 44.4-6.1 69.3-3.3 7.6 0.8 15.2 1.5 22.8 1.5 39.4 0 81.2-5 100.6 28.5q0.6 1.2 1.3 2.4c7.3 14 18.2 49.7 26.7 82.1 3.5 13.4 6.7 26.3 8.9 36.9 1.9 8.4 3.1 15.4 3.6 20 2.9 24 0.4 53.2-25 67.1z"/>
							<path id="&lt;Path&gt;" class="s9" d="m370 372.5c-25.4 13.9-49.4 30.2-107.1 33.6-30.6 1.9-78.1-5-112.7-21.8-30.7-14.8-50.2-38.2-54.9-56.8-1.2-4.9-1.8-10.2-1.9-16 4.2-14.8 14-27.7 22.9-35.2 19.2-16 31.4 6.5 56.2-7.1 42.6-23.6 85.5-19.2 85.5-19.2 37.8 2.3 76.2 18.7 91.5 26.3 15.1 7.6 25-5.6 41.9 9.1 1.9 8.4 3.1 15.4 3.6 20 2.9 24 0.4 53.1-25 67.1z"/>
							<g id="&lt;Group&gt;">
								<path id="&lt;Path&gt;" class="s10" d="m372.5 308c-0.8 18.4-13.5 60.1-65.6 75.1-12.1 3.5-26.1 5.5-42.6 5.5-12.7 0-24-0.9-34.3-2.5-13.8-2-25.6-5.4-35.7-9.5-57.2-23.8-58.5-74.4-58.5-74.4 0 0 12.3-17.4 15.3-9.4 3 8 36.8 36.3 58.2 39.9 20.5 3.5 44.1-1.4 50.1-8.4 8.1 8.2 29.1 25.5 53.9 15.5 32-12.9 44.1-38.9 48.7-38.4 3.8 0.4 7.9 4.8 10.5 6.6z"/>
								<g id="&lt;Group&gt;">
									<path id="&lt;Path&gt;" class="s6" d="m309.3 401.9c0.2 18.8-6.8 39.2-33.2 38.8-31.3-0.6-41.7-35.1-45.7-52.8q-0.2-0.9-0.4-1.7-1-0.2-1.9-0.3c-11.7-1.9-21.9-4.7-30.8-8.2q-1.5-0.5-3-1.1c5-3.4 17-11.1 27.9-15.7 3.7-1.5 7.3-2.7 10.4-3.3 12.2-2.2 22 3.1 27.9 3.2q0.9 0 1.7-0.1 1-0.3 1.9-0.4c22.3-4.6 34 0 40.6 15.9 0.7 1.9 1.5 4.2 2.2 6.9 1.3 5.3 2.4 12 2.4 18.8z"/>
									<g id="&lt;Group&gt;">
										<path id="&lt;Path&gt;" class="s7" d="m230.4 387.9q-0.2 0.1-0.4 0.1c-0.8 0-1.6-0.6-1.7-1.5q-0.1-0.3-0.2-0.6-0.3-1.6-0.6-3c-0.4-2-0.9-4-1-4.4-0.5-0.9-0.1-1.9 0.8-2.3 0.3-0.2 0.6-0.3 0.9-0.2 0.6 0 1.2 0.3 1.4 0.9 0.4 0.8 0.7 2.1 1.4 5.2q0 0.4 0.1 0.7 0.3 1.3 0.6 3c0.2 0.9-0.4 1.9-1.3 2.1z"/>
									</g>
									<g id="&lt;Group&gt;">
										<path id="&lt;Path&gt;" class="s7" d="m276.2 400.2c-0.9 0-1.6-0.7-1.8-1.5-3.1-22.9-13.5-36.8-13.6-36.9-0.6-0.8-0.4-1.9 0.3-2.5 0.8-0.6 1.9-0.5 2.5 0.3 0.5 0.6 11.1 14.7 14.4 38.6 0.1 1-0.6 1.8-1.6 2q-0.1 0-0.2 0z"/>
									</g>
									<path id="&lt;Path&gt;" class="s8" d="m309.3 401.9c0.2 18.8-6.8 39.2-33.2 38.8-31.3-0.6-41.7-35.1-45.7-52.8q-0.2 0.1-0.4 0.1c-0.8 0-1.6-0.6-1.7-1.5q-0.1-0.3-0.2-0.6c-11.7-1.9-21.9-4.7-30.8-8.2q-1.5-0.5-3-1.1c5-3.4 17-11.1 27.9-15.7 2.1 4.3 4.6 10 6 15.1q0.5 1.8 0.8 3.5c0.2 1 0.9 2.1 2.1 3.3 9.8 9.9 52.5 26 78.2 19.1z"/>
								</g>
								<g id="&lt;Group&gt;">
									<path id="&lt;Path&gt;" class="s2" d="m298 344.2c-18.5 0-33.2-12.5-39.6-18.9-0.5-0.5-0.5-1.4 0.1-1.9 0.5-0.6 1.4-0.6 1.9 0 7.7 7.8 28.2 24.8 52.4 15.1 21.2-8.5 33.4-22.8 40.8-31.3 4.1-4.8 6.3-7.4 8.5-7.2 3.3 0.4 6.5 3 9 5.2 0.9 0.7 1.6 1.3 2.2 1.7 0.6 0.5 0.8 1.3 0.3 1.9-0.4 0.7-1.3 0.8-1.9 0.3-0.7-0.5-1.5-1.1-2.3-1.8-2.3-1.9-5.1-4.3-7.5-4.5-1 0-3.8 3.3-6.3 6.2-7.5 8.7-20 23.3-41.7 32-5.6 2.3-10.9 3.2-15.9 3.2z"/>
								</g>
								<g id="&lt;Group&gt;">
									<path id="&lt;Path&gt;" class="s2" d="m223.4 335.2c-4.9 0-9.7-0.4-14.3-1.1-20.9-3.6-56-31.8-59.3-40.9-0.4-1.1-0.9-1.1-1.1-1.1-2.6-0.4-8.4 6.1-11.8 10.8-0.4 0.6-1.3 0.8-1.9 0.4-0.6-0.5-0.7-1.3-0.3-1.9 1.5-2.2 9.3-12.8 14.4-12 1 0.1 2.5 0.7 3.2 2.9 2.8 7.4 36.4 35.6 57.3 39.1 20.3 3.4 43.3-1.5 48.8-8q0.3-0.4 0.6-0.8c4.2-7 4.6-30.8 4.6-31.1 0-0.7 0.6-1.3 1.4-1.3 0.7 0 1.3 0.6 1.3 1.4 0 1-0.3 24.7-5 32.4q-0.4 0.6-0.9 1.2c-5.1 6.1-21.1 10-37 10z"/>
								</g>
								<g id="&lt;Group&gt;">
									<path id="&lt;Path&gt;" class="s11" d="m302.2 269.4c-0.2 1.3-0.5 2.6-1.2 3.9-4.1 8.8-17.7 18.9-29.2 22.9-3.9 1.3-7.6 1.9-10.6 1.5q-1.4-0.3-2.8-0.6c-12.1-2.8-29.5-12.6-36.2-22.9-1.5-2.2-2.4-4.5-2.7-6.7-1.6-13.3 16.1-24.7 38.1-24.7 42.7-0.1 45.3 20.6 44.6 26.6z"/>
									<path id="&lt;Path&gt;" class="s8" d="m258.4 297.1c-12.2-2.8-29.5-12.6-36.2-22.9 2.7-1.4 8-2.2 18 1.9 11.4 4.6 15.4 14.3 18.2 21z"/>
									<path id="&lt;Path&gt;" class="s8" d="m301 273.3c-4.1 8.8-17.7 18.9-29.2 22.9 4.2-5.9 8.7-13.3 12.9-16.8 5.1-4.1 12.2-5.6 16.3-6.1z"/>
								</g>
								<g id="&lt;Group&gt;">
									<g id="&lt;Group&gt;">
										<path id="&lt;Path&gt;" class="s2" d="m309.4 292.9c3.7 0 3.7-5.9 0-5.9-3.9 0-3.9 5.9 0 5.9z"/>
									</g>
									<g id="&lt;Group&gt;">
										<path id="&lt;Path&gt;" class="s2" d="m334.7 289.2c3.8 0 3.8-5.8 0-5.8-3.8 0-3.8 5.8 0 5.8z"/>
									</g>
									<g id="&lt;Group&gt;">
										<path id="&lt;Path&gt;" class="s2" d="m326.9 308.6c3.8 0 3.8-5.9 0-5.9-3.8 0-3.8 5.9 0 5.9z"/>
									</g>
								</g>
								<g id="&lt;Group&gt;">
									<g id="&lt;Group&gt;">
										<path id="&lt;Path&gt;" class="s2" d="m213 292.9c-3.8 0-3.8-5.9 0-5.9 3.8 0 3.8 5.9 0 5.9z"/>
									</g>
									<g id="&lt;Group&gt;">
										<path id="&lt;Path&gt;" class="s2" d="m187.6 289.2c-3.8 0-3.8-5.8 0-5.8 3.8 0 3.8 5.8 0 5.8z"/>
									</g>
									<g id="&lt;Group&gt;">
										<path id="&lt;Path&gt;" class="s2" d="m195.5 308.6c-3.8 0-3.8-5.9 0-5.9 3.8 0 3.8 5.9 0 5.9z"/>
									</g>
								</g>
							</g>
							<g id="&lt;Group&gt;">
								<path id="&lt;Path&gt;" class="s12" d="m157 256.2l-6.1-7c-1.1-1.2-0.9-3.1 0.4-4.2 15.9-12 34.3-8.6 41.4-6.6 1.7 0.5 2.5 2.3 1.9 3.9l-1.6 4.1-1.7 4.5c-0.6 1.3-2 2.1-3.5 1.7-5-1.4-16.9-3.3-26.9 4-1.2 0.9-2.9 0.7-3.9-0.4z"/>
							</g>
							<g id="&lt;Group&gt;">
								<path id="&lt;Path&gt;" class="s12" d="m317.6 252.2l-4.2-8.2c-0.8-1.5-0.1-3.3 1.5-4 18.3-7.8 35.3 0.2 41.7 3.9 1.5 0.9 1.9 2.8 0.9 4.2l-2.6 3.6-2.8 3.9c-0.8 1.2-2.5 1.6-3.8 0.8-4.5-2.5-15.5-7.4-27.1-2.8-1.4 0.5-2.9 0-3.6-1.4z"/>
							</g>
							<path id="&lt;Path&gt;" class="s13" d="m250.4 155.8c0.1 12.7-33.1 47.5-42.8 52.2-9.7 4.7-17.5-0.7-24.3-8-6.8-7.3-14.8 2.4-22-10.1-5.6-9.9-4.8-34.5 0.5-51.5 20.2-10.8 44.4-6.1 69.3-3.3 9.1 5.8 19.2 13.8 19.3 20.7z"/>
						</g>
						<g id="&lt;Group&gt;">
							<g id="&lt;Group&gt;">
								<path id="&lt;Path&gt;" class="s11" d="m187.2 540.4q-3.4 0-6.4-0.6c-2.1-0.4-4.2-1.1-6.1-2h-0.2c-0.2-0.1-0.4-0.3-0.7-0.4-3.8-1.8-7.7-4.7-11.9-8.8q-0.2-0.1-0.3-0.3c-11.5-11.1-22.5-28.3-31.3-42l-3-4.7c-0.5-0.8-0.2-1.9 0.6-2.4 0.8-0.5 1.9-0.3 2.4 0.6l3 4.6c8.7 13.6 19.5 30.5 30.7 41.4l0.3 0.2c4 3.8 7.6 6.6 11.1 8.3 0.2 0.1 0.4 0.1 0.6 0.3h0.1c1.7 0.8 3.5 1.3 5.4 1.7 3.1 0.6 6.6 0.7 10.2 0.2 1-0.1 1.8 0.6 2 1.6 0.1 1-0.7 1.9-1.6 2q-2.5 0.3-4.9 0.3z"/>
							</g>
							<g id="&lt;Group&gt;">
								<path id="&lt;Path&gt;" class="s11" d="m203.1 537.3c-0.9 0-1.7-0.8-1.7-1.7-1.3-19.3-26.1-38.1-26.3-38.3-0.8-0.6-1-1.7-0.4-2.5 0.6-0.8 1.7-0.9 2.5-0.4 1.1 0.9 26.4 20.1 27.7 41 0.1 0.9-0.7 1.8-1.7 1.9q0 0-0.1 0z"/>
							</g>
							<g id="&lt;Group&gt;">
								<path id="&lt;Path&gt;" class="s11" d="m229.4 518.3q-0.1 0-0.2 0c-0.9-0.1-1.7-0.9-1.6-1.9 0.8-15.1-27.5-34-27.7-34.2-0.9-0.6-1.1-1.7-0.5-2.5 0.5-0.8 1.6-1 2.4-0.5 1.2 0.8 30.3 20.2 29.3 37.4 0 0.9-0.8 1.7-1.7 1.7z"/>
							</g>
						</g>
						<g id="&lt;Group&gt;">
							<path id="&lt;Path&gt;" class="s5" d="m489.3 554.3h-120.3c0 0-1.6-19.1-3.6-42.1-0.9-9.3-1.8-19.2-2.6-28.8-2.3-25.4-4.5-48.5-5.1-51.7-1.6-7.2-16.7-17.1-8.4-29.7 8.4-12.5 22.9-14.6 22.2-27.2-0.7-12.5 5.3-26.8 12.5-31.3 7.3-4.3 17.7-0.2 25.8 0 8.1 0.3 13.4-3.4 25.9 1.5 12.6 4.8 12.1 9.1 16 11.9 4 2.8 16.9 6.9 19.2 18.4 2.2 11.4 0.8 22.1 2.2 26.7 0.9 3 0.8 9.2-1.3 16.2-1.2 4-3.1 8.3-5.8 12.5-6.4 9.9-4.6 17.6-3.1 28.2 0.2 1.7 0.5 3.5 0.7 5.4 1.3 13.5 25.7 90 25.7 90z"/>
							<g id="&lt;Group&gt;">
								<path id="&lt;Path&gt;" class="s11" d="m346.9 412.2c-0.5 0-0.9-0.3-1.1-0.8-1.4-5.4 3.5-13.5 12.1-19.8 14.1-8.3 12.6-17.7 12.5-18.1-0.2-0.6 0.3-1.2 0.8-1.3 0.7-0.1 1.3 0.3 1.4 0.9 0 0.4 2 11.2-13.4 20.4-8.6 6.3-12.2 13.6-11.2 17.3 0.1 0.6-0.2 1.2-0.8 1.4q-0.1 0-0.3 0z"/>
							</g>
							<path id="&lt;Path&gt;" class="s6" d="m393.3 363.6c0.7-1.1 1.5-2.1 2.8-2.9 1.2-0.8 2.9-1.3 4.5-1 1.7 0.3 3 1.2 4.1 2.2 3.4 3.3 5 7.5 4.7 11.6-0.2 4.1-2.3 7.9-5.5 11.1-2.8 2.9-9.4 6.3-12.6 1.8-3-4.4-2.7-10.3-1.5-14.9 0.6-2.7 1.8-5.4 3.5-7.9z"/>
							<path id="&lt;Path&gt;" class="s6" d="m370.7 402.7c0.7-1.1 1.5-2.2 2.6-3 1.3-0.9 2.9-1.4 4.6-1.2 1.7 0.2 3 1 4.1 2 3.6 3.1 5.4 7.3 5.3 11.3-0.1 4.1-2 8.1-5 11.5-2.7 2.9-9.1 6.7-12.5 2.2-3.3-4.2-3.2-10.2-2.3-14.8 0.6-2.7 1.7-5.4 3.2-8z"/>
							<path id="&lt;Path&gt;" class="s6" d="m424.9 362.3c0.7-1 1.5-2 2.6-2.8 1.2-0.7 2.7-1.1 4.3-0.8 1.5 0.2 2.7 1.1 3.7 2 3.2 3.1 4.7 6.9 4.5 10.7-0.3 3.8-2.2 7.4-5.2 10.4-2.6 2.6-8.7 5.8-11.7 1.6-2.8-4.1-2.5-9.6-1.4-13.8 0.6-2.6 1.7-5 3.2-7.3z"/>
							<path id="&lt;Path&gt;" class="s6" d="m448.3 381.4c0.7-1 1.4-2 2.6-2.7 1.2-0.7 2.7-1.1 4.3-0.9 1.5 0.2 2.8 1.1 3.7 2 3.2 3.1 4.7 7 4.5 10.8-0.3 3.7-2.2 7.3-5.2 10.4-2.6 2.6-8.7 5.8-11.7 1.5-2.8-4-2.5-9.5-1.5-13.8 0.7-2.5 1.8-5 3.3-7.3z"/>
							<path id="&lt;Path&gt;" class="s6" d="m394 408.4c7.9-11.5 32.2-17.1 46-4 13.8 13 4.3 33.6-7.1 30.5-11.3-2.9-18.5-0.4-30.1-2.9-11.6-2.6-12.8-17.8-8.8-23.6z"/>
							<g id="&lt;Group&gt;">
								<path id="&lt;Path&gt;" class="s4" d="m489.3 554.3h-120.3c0 0-1.6-19.1-3.6-42.1-0.9-9.3-1.8-19.2-2.6-28.8 44.3-15.5 82.8-43 109-65.2-1.2 4-3.1 8.3-5.8 12.5-6.4 9.9-4.6 17.6-3.1 28.2 0.2 1.7 0.5 3.5 0.7 5.4 1.3 13.5 25.7 90 25.7 90z"/>
							</g>
						</g>
					</g>
				</g>
			</g>
		</g>
		<g id="&lt;Group&gt;">
			<g id="&lt;Group&gt;">
				<path id="&lt;Path&gt;" class="s14" d="m439 290.6l1.8 2.9c0.1 0.2 0.3 0.3 0.5 0.4l3.3 0.8c0.6 0.1 0.8 0.8 0.4 1.3l-2.2 2.6c-0.1 0.1-0.2 0.3-0.2 0.6l0.3 3.3c0.1 0.6-0.6 1-1.1 0.8l-3.1-1.3q-0.4-0.1-0.6 0l-3.2 1.3c-0.6 0.2-1.2-0.2-1.1-0.8l0.3-3.3q0-0.4-0.2-0.6l-2.2-2.6c-0.4-0.5-0.2-1.2 0.4-1.3l3.3-0.8q0.3-0.1 0.5-0.4l1.8-2.9c0.3-0.5 1-0.5 1.3 0z"/>
			</g>
			<g id="&lt;Group&gt;">
				<path id="&lt;Path&gt;" class="s14" d="m143 74.9l1.8 2.9c0.1 0.1 0.3 0.3 0.5 0.4l3.3 0.7c0.6 0.2 0.8 0.9 0.4 1.3l-2.2 2.6c-0.2 0.1-0.2 0.4-0.2 0.6l0.3 3.4c0.1 0.6-0.5 1-1.1 0.8l-3.2-1.3c-0.1-0.2-0.4-0.2-0.6 0l-3.1 1.3c-0.6 0.2-1.2-0.2-1.1-0.8l0.3-3.4c0-0.2-0.1-0.5-0.2-0.6l-2.2-2.6c-0.4-0.4-0.2-1.1 0.4-1.3l3.3-0.7c0.2-0.1 0.4-0.3 0.5-0.4l1.7-2.9c0.4-0.6 1.1-0.6 1.4 0z"/>
			</g>
			<g id="&lt;Group&gt;">
				<path id="&lt;Path&gt;" class="s14" d="m63.6 326.9l1.7 2.8q0.2 0.4 0.5 0.4l3.3 0.8c0.6 0.1 0.9 0.8 0.5 1.3l-2.2 2.6c-0.2 0.1-0.3 0.4-0.3 0.5l0.3 3.4c0.1 0.6-0.5 1.1-1.1 0.8l-3.1-1.3q-0.3-0.1-0.7 0l-3.1 1.3c-0.5 0.3-1.1-0.2-1.1-0.8l0.3-3.4c0.1-0.1-0.1-0.4-0.2-0.5l-2.2-2.6c-0.4-0.5-0.2-1.2 0.4-1.3l3.3-0.8q0.4 0 0.5-0.4l1.8-2.8c0.3-0.6 1.1-0.6 1.4 0z"/>
			</g>
			<path id="&lt;Path&gt;" class="s15" d="m18.9 261.7l2.3 3.8q0.2 0.3 0.6 0.4l4.4 1.1c0.8 0.1 1.1 1.1 0.6 1.7l-3 3.4c-0.1 0.2-0.2 0.5-0.2 0.7l0.4 4.5c0.1 0.8-0.8 1.4-1.5 1.1l-4.1-1.8c-0.3-0.1-0.6-0.1-0.8 0l-4.2 1.8c-0.7 0.3-1.5-0.3-1.4-1.1l0.4-4.5c0-0.2-0.2-0.5-0.3-0.7l-3-3.4c-0.5-0.6-0.2-1.6 0.6-1.7l4.4-1.1q0.4-0.1 0.6-0.4l2.4-3.8c0.4-0.8 1.4-0.8 1.8 0z"/>
			<path id="&lt;Path&gt;" class="s15" d="m401.3 102.3l2.3 3.8q0.2 0.5 0.6 0.5l4.4 1c0.8 0.2 1.1 1.2 0.6 1.8l-3 3.3c-0.1 0.3-0.3 0.5-0.2 0.9l0.4 4.4c0 0.8-0.8 1.4-1.5 1.1l-4.1-1.8c-0.3-0.1-0.6-0.1-0.8 0l-4.2 1.8c-0.7 0.3-1.5-0.3-1.4-1.1l0.3-4.4q0-0.5-0.2-0.9l-3-3.3c-0.5-0.6-0.2-1.6 0.6-1.8l4.4-1q0.4 0 0.6-0.5l2.4-3.8c0.3-0.6 1.3-0.6 1.8 0z"/>
			<path id="&lt;Path&gt;" class="s15" d="m466.7 484.2l2.3 3.8c0.2 0.2 0.4 0.4 0.7 0.5l4.3 1c0.8 0.2 1.1 1.1 0.6 1.7l-2.9 3.4c-0.2 0.2-0.3 0.5-0.3 0.8l0.4 4.5c0.1 0.7-0.7 1.4-1.5 1l-4.1-1.7q-0.4-0.2-0.8 0l-4.1 1.7c-0.7 0.4-1.6-0.3-1.5-1l0.4-4.5c0-0.3-0.1-0.6-0.3-0.8l-2.9-3.4c-0.5-0.6-0.2-1.5 0.6-1.7l4.3-1c0.3-0.1 0.5-0.3 0.7-0.5l2.3-3.8c0.4-0.7 1.4-0.7 1.8 0z"/>
			<path id="&lt;Path&gt;" fill-rule="evenodd" class="s16" d="m461.6 164l2.2 3.9q0.3 0.4 0.7 0.5l4.4 1c0.8 0.1 1.1 1.1 0.5 1.7l-2.9 3.4c-0.2 0.2-0.3 0.5-0.2 0.8l0.4 4.4c0 0.8-0.8 1.4-1.5 1.1l-4.1-1.7c-0.3-0.2-0.7-0.2-0.9 0l-4.1 1.7c-0.8 0.3-1.5-0.3-1.5-1.1l0.4-4.4c0-0.3 0-0.6-0.3-0.8l-2.9-3.4c-0.5-0.6-0.2-1.6 0.6-1.7l4.3-1q0.5-0.1 0.7-0.5l2.3-3.9c0.4-0.6 1.4-0.6 1.9 0z"/>
			<path id="&lt;Path&gt;" fill-rule="evenodd" class="s16" d="m35.7 94.4l2.3 3.8c0.1 0.3 0.4 0.5 0.7 0.5l4.3 1c0.8 0.2 1.1 1.2 0.6 1.8l-2.9 3.4c-0.2 0.2-0.3 0.5-0.3 0.7l0.4 4.5c0.1 0.8-0.7 1.4-1.5 1.1l-4.1-1.8q-0.4-0.2-0.8 0l-4.1 1.8c-0.8 0.3-1.6-0.3-1.5-1.1l0.4-4.5c0-0.2-0.1-0.5-0.3-0.7l-2.9-3.4c-0.6-0.6-0.2-1.6 0.5-1.8l4.4-1c0.3 0 0.5-0.2 0.6-0.5l2.4-3.8c0.4-0.7 1.4-0.7 1.8 0z"/>
			<path id="&lt;Path&gt;" fill-rule="evenodd" class="s16" d="m9.8 432.3l2.3 3.8c0.1 0.3 0.4 0.5 0.7 0.5l4.3 1c0.8 0.2 1.1 1.2 0.6 1.8l-2.9 3.4c-0.2 0.2-0.3 0.5-0.3 0.7l0.4 4.5c0.1 0.8-0.7 1.3-1.5 1.1l-4.1-1.8q-0.4-0.2-0.8 0l-4.1 1.8c-0.8 0.2-1.6-0.3-1.5-1.1l0.4-4.5c0-0.2-0.1-0.5-0.3-0.7l-2.9-3.4c-0.6-0.6-0.2-1.6 0.6-1.8l4.3-1c0.3 0 0.5-0.2 0.6-0.5l2.4-3.8c0.4-0.7 1.4-0.7 1.8 0z"/>
		</g>
		<g id="&lt;Group&gt;">
			<g id="&lt;Group&gt;">
				<g id="&lt;Group&gt;">
				</g>
			</g>
			<g id="&lt;Group&gt;">
				<g id="&lt;Group&gt;">
				</g>
				<g id="&lt;Group&gt;">
					<g id="&lt;Group&gt;">
					</g>
				</g>
			</g>
		</g>
	</g>
</svg>