<?xml version="1.0" standalone="no"?>
<!DOCTYPE svg PUBLIC "-//W3C//DTD SVG 20010904//EN"
 "http://www.w3.org/TR/2001/REC-SVG-20010904/DTD/svg10.dtd">
<svg version="1.0" xmlns="http://www.w3.org/2000/svg"
 width="500.000000pt" height="500.000000pt" viewBox="0 0 500.000000 500.000000"
 preserveAspectRatio="xMidYMid meet">
<metadata>
Created by potrace 1.14, written by Peter Selinger 2001-2017
</metadata>
<g transform="translate(0.000000,500.000000) scale(0.100000,-0.100000)"
fill="#000000" stroke="none">
<path d="M32 4918 c2 -6 10 -13 16 -14 7 -1 8 0 2 3 -5 2 -8 9 -4 14 3 5 0 9
-6 9 -7 0 -10 -5 -8 -12z"/>
<path d="M90 4920 c0 -5 5 -10 11 -10 5 0 7 5 4 10 -3 6 -8 10 -11 10 -2 0 -4
-4 -4 -10z"/>
<path d="M265 4919 c-4 -6 -13 -8 -21 -5 -8 3 -14 1 -14 -4 0 -6 6 -10 13 -10
15 1 55 30 40 30 -7 0 -15 -5 -18 -11z"/>
<path d="M336 4917 c3 -10 9 -15 12 -12 3 3 0 11 -7 18 -10 9 -11 8 -5 -6z"/>
<path d="M425 4919 c-4 -6 -5 -12 -2 -15 2 -3 7 2 10 11 7 17 1 20 -8 4z"/>
<path d="M512 4918 c2 -6 10 -13 16 -14 7 -1 8 0 2 3 -5 2 -8 9 -4 14 3 5 0 9
-6 9 -7 0 -10 -5 -8 -12z"/>
<path d="M570 4920 c0 -5 5 -10 11 -10 5 0 7 5 4 10 -3 6 -8 10 -11 10 -2 0
-4 -4 -4 -10z"/>
<path d="M665 4920 c-3 -5 -1 -10 4 -10 6 0 11 5 11 10 0 6 -2 10 -4 10 -3 0
-8 -4 -11 -10z"/>
<path d="M750 4921 c0 -6 9 -16 20 -24 11 -8 17 -17 14 -20 -4 -4 -20 5 -37
19 -16 14 -32 22 -35 19 -4 -3 0 -10 7 -14 9 -6 10 -11 3 -15 -6 -4 -15 0 -19
9 -7 12 -10 12 -21 -5 -8 -14 -9 -21 0 -26 6 -4 8 -3 5 3 -4 7 5 10 23 8 16
-1 27 1 24 6 -3 5 -1 9 5 9 5 0 11 -5 13 -10 2 -6 13 -12 26 -15 15 -2 20 0
16 7 -4 6 -3 8 4 4 18 -11 22 10 7 30 -14 18 -15 18 -9 1 6 -17 5 -18 -14 -6
-11 7 -18 17 -16 21 3 4 0 8 -5 8 -6 0 -11 -4 -11 -9z"/>
<path d="M816 4917 c3 -10 9 -15 12 -12 3 3 0 11 -7 18 -10 9 -11 8 -5 -6z"/>
<path d="M905 4919 c-4 -6 -5 -12 -2 -15 2 -3 7 2 10 11 7 17 1 20 -8 4z"/>
<path d="M992 4918 c2 -6 10 -13 16 -14 7 -1 8 0 2 3 -5 2 -8 9 -4 14 3 5 0 9
-6 9 -7 0 -10 -5 -8 -12z"/>
<path d="M1050 4920 c0 -5 5 -10 11 -10 5 0 7 5 4 10 -3 6 -8 10 -11 10 -2 0
-4 -4 -4 -10z"/>
<path d="M1225 4919 c-4 -6 -13 -8 -21 -5 -8 3 -14 1 -14 -4 0 -6 6 -10 13
-10 15 1 55 30 40 30 -7 0 -15 -5 -18 -11z"/>
<path d="M1296 4917 c3 -10 9 -15 12 -12 3 3 0 11 -7 18 -10 9 -11 8 -5 -6z"/>
<path d="M1385 4919 c-4 -6 -5 -12 -2 -15 2 -3 7 2 10 11 7 17 1 20 -8 4z"/>
<path d="M1472 4918 c2 -6 10 -13 16 -14 7 -1 8 0 2 3 -5 2 -8 9 -4 14 3 5 0
9 -6 9 -7 0 -10 -5 -8 -12z"/>
<path d="M1530 4920 c0 -5 5 -10 11 -10 5 0 7 5 4 10 -3 6 -8 10 -11 10 -2 0
-4 -4 -4 -10z"/>
<path d="M1615 4919 c-4 -6 -5 -12 -2 -15 2 -3 7 2 10 11 7 17 1 20 -8 4z"/>
<path d="M1640 4913 c-13 -15 -12 -16 4 -10 12 5 16 3 13 -5 -2 -7 -11 -12
-21 -10 -9 2 -16 -1 -16 -6 0 -12 83 -9 93 3 5 7 9 7 15 0 8 -12 42 -14 42 -2
0 4 0 10 0 15 0 15 -52 32 -69 21 -13 -8 -13 -9 4 -5 12 3 30 -3 45 -15 20
-17 21 -19 5 -13 -11 4 -35 7 -52 7 -30 1 -38 7 -34 30 2 12 -13 7 -29 -10z"/>
<path d="M1776 4917 c3 -10 9 -15 12 -12 3 3 0 11 -7 18 -10 9 -11 8 -5 -6z"/>
<path d="M1865 4919 c-4 -6 -5 -12 -2 -15 2 -3 7 2 10 11 7 17 1 20 -8 4z"/>
<path d="M1952 4918 c2 -6 10 -13 16 -14 7 -1 8 0 2 3 -5 2 -8 9 -4 14 3 5 0
9 -6 9 -7 0 -10 -5 -8 -12z"/>
<path d="M2010 4920 c0 -5 5 -10 11 -10 5 0 7 5 4 10 -3 6 -8 10 -11 10 -2 0
-4 -4 -4 -10z"/>
<path d="M2185 4919 c-4 -6 -13 -8 -21 -5 -8 3 -14 1 -14 -4 0 -6 6 -10 13
-10 15 1 55 30 40 30 -7 0 -15 -5 -18 -11z"/>
<path d="M2256 4917 c3 -10 9 -15 12 -12 3 3 0 11 -7 18 -10 9 -11 8 -5 -6z"/>
<path d="M2345 4919 c-4 -6 -5 -12 -2 -15 2 -3 7 2 10 11 7 17 1 20 -8 4z"/>
<path d="M2432 4918 c2 -6 10 -13 16 -14 7 -1 8 0 2 3 -5 2 -8 9 -4 14 3 5 0
9 -6 9 -7 0 -10 -5 -8 -12z"/>
<path d="M2490 4920 c0 -5 5 -10 11 -10 5 0 7 5 4 10 -3 6 -8 10 -11 10 -2 0
-4 -4 -4 -10z"/>
<path d="M2585 4920 c-3 -5 -1 -10 4 -10 6 0 11 5 11 10 0 6 -2 10 -4 10 -3 0
-8 -4 -11 -10z"/>
<path d="M2670 4921 c0 -6 9 -16 20 -24 11 -8 17 -17 14 -20 -4 -4 -20 5 -37
19 -16 14 -32 22 -35 19 -4 -3 0 -10 7 -14 9 -6 10 -11 3 -15 -6 -4 -15 0 -19
9 -7 12 -10 12 -21 -5 -8 -14 -9 -21 0 -26 6 -4 8 -3 5 3 -4 7 5 10 23 8 16
-1 27 1 24 6 -3 5 -1 9 5 9 5 0 11 -5 13 -10 2 -6 13 -12 26 -15 15 -2 20 0
16 7 -4 6 -3 8 4 4 18 -11 22 10 7 30 -14 18 -15 18 -9 1 6 -17 5 -18 -14 -6
-11 7 -18 17 -16 21 3 4 0 8 -5 8 -6 0 -11 -4 -11 -9z"/>
<path d="M2736 4917 c3 -10 9 -15 12 -12 3 3 0 11 -7 18 -10 9 -11 8 -5 -6z"/>
<path d="M2825 4919 c-4 -6 -5 -12 -2 -15 2 -3 7 2 10 11 7 17 1 20 -8 4z"/>
<path d="M2912 4918 c2 -6 10 -13 16 -14 7 -1 8 0 2 3 -5 2 -8 9 -4 14 3 5 0
9 -6 9 -7 0 -10 -5 -8 -12z"/>
<path d="M2970 4920 c0 -5 5 -10 11 -10 5 0 7 5 4 10 -3 6 -8 10 -11 10 -2 0
-4 -4 -4 -10z"/>
<path d="M3145 4919 c-4 -6 -13 -8 -21 -5 -8 3 -14 1 -14 -4 0 -6 6 -10 13
-10 15 1 55 30 40 30 -7 0 -15 -5 -18 -11z"/>
<path d="M3216 4917 c3 -10 9 -15 12 -12 3 3 0 11 -7 18 -10 9 -11 8 -5 -6z"/>
<path d="M3305 4919 c-4 -6 -5 -12 -2 -15 2 -3 7 2 10 11 7 17 1 20 -8 4z"/>
<path d="M3392 4918 c2 -6 10 -13 16 -14 7 -1 8 0 2 3 -5 2 -8 9 -4 14 3 5 0
9 -6 9 -7 0 -10 -5 -8 -12z"/>
<path d="M3450 4920 c0 -5 5 -10 11 -10 5 0 7 5 4 10 -3 6 -8 10 -11 10 -2 0
-4 -4 -4 -10z"/>
<path d="M3535 4919 c-4 -6 -5 -12 -2 -15 2 -3 7 2 10 11 7 17 1 20 -8 4z"/>
<path d="M3560 4913 c-13 -15 -12 -16 4 -10 12 5 16 3 13 -5 -2 -7 -11 -12
-21 -10 -9 2 -16 -1 -16 -6 0 -12 83 -9 93 3 5 7 9 7 15 0 8 -12 42 -14 42 -2
0 4 0 10 0 15 0 15 -52 32 -69 21 -13 -8 -13 -9 4 -5 12 3 30 -3 45 -15 20
-17 21 -19 5 -13 -11 4 -35 7 -52 7 -30 1 -38 7 -34 30 2 12 -13 7 -29 -10z"/>
<path d="M3696 4917 c3 -10 9 -15 12 -12 3 3 0 11 -7 18 -10 9 -11 8 -5 -6z"/>
<path d="M3785 4919 c-4 -6 -5 -12 -2 -15 2 -3 7 2 10 11 7 17 1 20 -8 4z"/>
<path d="M3872 4918 c2 -6 10 -13 16 -14 7 -1 8 0 2 3 -5 2 -8 9 -4 14 3 5 0
9 -6 9 -7 0 -10 -5 -8 -12z"/>
<path d="M3930 4920 c0 -5 5 -10 11 -10 5 0 7 5 4 10 -3 6 -8 10 -11 10 -2 0
-4 -4 -4 -10z"/>
<path d="M4105 4919 c-4 -6 -13 -8 -21 -5 -8 3 -14 1 -14 -4 0 -6 6 -10 13
-10 15 1 55 30 40 30 -7 0 -15 -5 -18 -11z"/>
<path d="M4176 4917 c3 -10 9 -15 12 -12 3 3 0 11 -7 18 -10 9 -11 8 -5 -6z"/>
<path d="M4265 4919 c-4 -6 -5 -12 -2 -15 2 -3 7 2 10 11 7 17 1 20 -8 4z"/>
<path d="M4352 4918 c2 -6 10 -13 16 -14 7 -1 8 0 2 3 -5 2 -8 9 -4 14 3 5 0
9 -6 9 -7 0 -10 -5 -8 -12z"/>
<path d="M4410 4920 c0 -5 5 -10 11 -10 5 0 7 5 4 10 -3 6 -8 10 -11 10 -2 0
-4 -4 -4 -10z"/>
<path d="M4505 4920 c-3 -5 -1 -10 4 -10 6 0 11 5 11 10 0 6 -2 10 -4 10 -3 0
-8 -4 -11 -10z"/>
<path d="M4590 4921 c0 -6 9 -16 20 -24 11 -8 17 -17 14 -20 -4 -4 -20 5 -37
19 -16 14 -32 22 -35 19 -4 -3 0 -10 7 -14 9 -6 10 -11 3 -15 -6 -4 -15 0 -19
9 -7 12 -10 12 -21 -5 -8 -14 -9 -21 0 -26 6 -4 8 -3 5 3 -4 7 5 10 23 8 16
-1 27 1 24 6 -3 5 -1 9 5 9 5 0 11 -5 13 -10 2 -6 13 -12 26 -15 15 -2 20 0
16 7 -4 6 -3 8 4 4 18 -11 22 10 7 30 -14 18 -15 18 -9 1 6 -17 5 -18 -14 -6
-11 7 -18 17 -16 21 3 4 0 8 -5 8 -6 0 -11 -4 -11 -9z"/>
<path d="M4656 4917 c3 -10 9 -15 12 -12 3 3 0 11 -7 18 -10 9 -11 8 -5 -6z"/>
<path d="M4745 4919 c-4 -6 -5 -12 -2 -15 2 -3 7 2 10 11 7 17 1 20 -8 4z"/>
<path d="M4832 4918 c2 -6 10 -13 16 -14 7 -1 8 0 2 3 -5 2 -8 9 -4 14 3 5 0
9 -6 9 -7 0 -10 -5 -8 -12z"/>
<path d="M4890 4920 c0 -5 5 -10 11 -10 5 0 7 5 4 10 -3 6 -8 10 -11 10 -2 0
-4 -4 -4 -10z"/>
<path d="M141 4910 c3 -28 -1 -41 -10 -35 -5 3 -12 1 -15 -4 -4 -5 1 -8 10 -7
22 3 35 29 23 46 -9 13 -10 13 -8 0z"/>
<path d="M204 4903 c0 -9 -5 -18 -12 -20 -8 -3 -10 2 -6 14 3 10 -6 3 -21 -15
-15 -18 -31 -30 -36 -27 -5 4 -9 -2 -10 -12 0 -14 -2 -13 -10 6 -7 18 -12 21
-23 12 -7 -6 -16 -7 -21 -3 -4 4 -5 -4 -1 -18 3 -14 3 -19 0 -12 -3 6 -10 10
-15 7 -5 -4 -6 1 -3 9 3 9 1 16 -5 16 -10 0 -15 -14 -12 -33 1 -5 -2 -6 -7 -3
-5 3 -8 15 -6 28 1 13 3 28 3 33 1 6 4 6 9 -1 9 -14 63 -14 55 1 -3 5 0 5 7
-2 10 -9 16 -9 26 2 18 18 18 31 0 16 -7 -6 -21 -9 -30 -5 -9 3 -16 2 -16 -4
0 -14 -24 -10 -44 7 -9 8 -19 11 -23 7 -3 -3 -1 -6 7 -6 9 0 10 -3 1 -13 -15
-18 -15 -4765 0 -4787 8 -12 9 -10 4 7 -3 12 -1 24 5 28 5 3 10 11 10 16 0 6
-4 7 -10 4 -6 -4 -7 1 -3 11 5 15 7 15 15 0 5 -9 6 -21 3 -26 -3 -6 3 -10 15
-10 12 0 18 -5 15 -10 -4 -7 -14 -6 -28 1 l-22 11 23 -21 c12 -12 22 -27 22
-34 0 -8 3 -9 8 -1 4 6 15 13 24 17 9 3 22 16 28 28 7 12 8 19 2 15 -5 -3 -16
2 -23 11 -12 15 -12 16 1 8 25 -16 40 -14 41 3 0 12 3 10 9 -5 11 -27 29 -31
25 -5 -1 9 0 12 2 5 3 -8 12 -9 28 -3 18 7 23 6 19 -4 -7 -19 32 -13 57 10 12
10 19 14 16 8 -8 -15 17 -25 40 -18 14 4 13 2 -2 -7 -11 -7 -33 -21 -49 -32
l-28 -20 7 24 c5 18 4 21 -4 9 -7 -9 -11 -10 -11 -3 0 6 -9 11 -20 10 -11 -1
-20 -5 -20 -9 0 -7 8 -9 26 -7 3 0 11 -7 18 -17 9 -12 15 -14 20 -5 4 6 13 8
19 4 19 -12 37 -12 37 -1 0 6 -7 7 -16 4 -10 -4 -14 -2 -11 6 2 7 10 12 16 11
6 -2 11 2 11 7 0 6 9 10 21 10 11 0 18 4 15 8 -10 17 -15 62 -5 57 5 -4 8 -9
5 -13 -8 -16 12 -46 32 -47 12 -1 22 2 22 8 0 5 6 7 13 4 6 -2 19 -1 28 4 12
6 16 3 15 -16 -1 -13 -5 -27 -9 -31 -4 -4 -7 -14 -6 -23 0 -10 5 -6 11 9 6 14
10 28 10 33 -1 4 2 7 7 7 5 0 8 8 6 18 -1 9 0 12 2 5 3 -8 12 -9 28 -3 18 7
23 6 19 -4 -7 -19 32 -13 57 10 12 10 20 14 16 8 -7 -12 37 -37 47 -27 10 10
7 25 -4 18 -6 -4 -7 1 -3 11 5 15 7 15 15 0 5 -9 6 -21 3 -26 -3 -6 3 -10 15
-10 12 0 18 -5 15 -10 -4 -7 -14 -6 -28 1 l-22 11 23 -21 c12 -12 22 -27 22
-34 0 -8 3 -9 8 -1 4 6 15 13 24 17 9 3 22 16 28 28 7 12 8 19 2 15 -5 -3 -16
2 -23 11 -12 15 -12 16 1 8 25 -16 40 -14 41 3 0 12 3 10 9 -5 11 -27 29 -31
25 -5 -1 9 0 12 2 5 3 -8 12 -9 28 -3 18 7 23 6 19 -4 -7 -19 32 -13 57 10 12
10 19 14 16 8 -8 -15 17 -25 41 -18 13 4 12 2 -3 -7 -11 -7 -33 -21 -49 -32
l-28 -20 7 24 c5 18 4 21 -4 9 -7 -9 -11 -10 -11 -3 0 6 -9 11 -20 10 -11 -1
-20 -5 -20 -9 0 -8 15 -11 25 -5 2 1 10 -7 18 -17 10 -13 16 -16 21 -7 4 6 13
8 19 4 19 -12 37 -12 37 -1 0 6 -7 7 -16 4 -10 -4 -14 -2 -11 6 2 7 10 12 16
11 6 -2 11 2 11 7 0 6 9 10 21 10 11 0 18 4 15 8 -10 17 -15 62 -5 57 5 -4 8
-9 5 -13 -8 -16 12 -46 32 -47 12 -1 22 2 22 8 0 5 6 7 13 4 6 -2 19 -1 28 4
12 6 16 3 15 -16 -1 -13 -5 -27 -9 -31 -4 -4 -7 -14 -6 -23 0 -10 5 -6 11 9 6
14 10 28 10 33 -1 4 2 7 7 7 5 0 8 8 6 18 -1 9 0 12 2 5 3 -8 12 -9 28 -3 18
7 23 6 19 -4 -7 -19 32 -13 57 10 12 10 20 14 16 8 -7 -12 37 -37 47 -27 10
10 7 25 -4 18 -6 -4 -7 1 -3 11 5 15 7 15 15 0 5 -9 6 -21 3 -26 -3 -6 3 -10
15 -10 12 0 18 -5 15 -10 -4 -7 -14 -6 -28 1 l-22 11 23 -21 c12 -12 22 -27
22 -34 0 -8 3 -9 8 -1 4 6 15 13 24 17 9 3 22 16 28 28 7 12 8 19 2 15 -5 -3
-16 2 -23 11 -12 15 -12 16 1 8 25 -16 40 -14 41 3 0 12 3 10 9 -5 11 -27 29
-31 25 -5 -1 9 0 12 2 5 3 -8 12 -9 28 -3 18 7 23 6 19 -4 -7 -19 32 -13 57
10 12 10 19 14 16 8 -8 -15 17 -25 41 -18 13 4 12 2 -3 -7 -11 -7 -33 -21 -49
-32 l-28 -20 7 24 c5 18 4 21 -4 9 -7 -9 -11 -10 -11 -3 0 6 -9 11 -20 10 -20
-1 -29 -17 -10 -17 19 0 25 -3 36 -18 8 -11 13 -12 18 -3 4 6 13 8 19 4 19
-12 37 -12 37 -1 0 6 -7 7 -16 4 -10 -4 -14 -2 -11 6 2 7 10 12 16 11 6 -2 11
2 11 7 0 6 9 10 21 10 11 0 18 4 15 8 -10 17 -15 62 -5 57 5 -4 8 -9 5 -13 -8
-16 12 -46 32 -47 12 -1 22 2 22 8 0 5 6 7 13 4 6 -2 19 -1 28 4 12 6 16 3 15
-16 -1 -13 -5 -27 -9 -31 -4 -4 -7 -14 -6 -23 0 -10 5 -6 11 9 6 14 10 28 10
33 -1 4 2 7 7 7 5 0 8 8 6 17 -1 10 0 13 2 6 3 -8 12 -9 28 -3 18 7 23 6 19
-4 -7 -19 32 -13 57 10 12 10 20 14 16 8 -7 -12 37 -37 47 -27 10 10 7 25 -4
18 -6 -4 -7 1 -3 11 5 15 7 15 15 0 5 -9 6 -21 3 -26 -3 -6 3 -10 15 -10 12 0
18 -5 15 -10 -4 -7 -14 -6 -28 1 l-22 11 23 -21 c12 -12 22 -27 22 -34 0 -8 3
-9 8 -1 4 6 15 13 24 17 9 3 22 16 28 28 7 12 8 19 2 15 -5 -3 -16 2 -23 11
-12 15 -12 16 1 8 25 -16 40 -14 41 3 0 12 3 10 9 -5 11 -27 29 -31 25 -5 -1
9 0 12 2 5 3 -8 12 -9 28 -3 18 7 23 6 19 -4 -7 -19 32 -13 57 10 12 10 19 14
16 8 -8 -15 17 -25 41 -18 13 4 12 2 -3 -7 -11 -7 -33 -21 -49 -32 l-28 -20 7
24 c5 18 4 21 -4 9 -7 -9 -11 -10 -11 -3 0 6 -9 11 -20 10 -20 -1 -29 -17 -10
-17 19 0 25 -3 36 -18 8 -11 13 -12 18 -3 4 6 13 8 19 4 19 -12 37 -12 37 -1
0 6 -7 7 -16 4 -10 -4 -14 -2 -11 6 2 7 10 12 16 11 6 -2 11 2 11 7 0 6 9 10
21 10 11 0 18 4 15 8 -10 17 -15 62 -5 57 5 -4 8 -9 5 -13 -8 -16 12 -46 32
-47 12 -1 22 2 22 8 0 5 6 7 13 4 6 -2 19 -1 28 4 12 6 16 3 15 -16 -1 -13 -5
-27 -9 -31 -4 -4 -7 -14 -6 -23 0 -10 5 -6 11 9 6 14 10 28 10 32 -1 5 2 8 7
8 5 0 8 8 6 18 -1 9 0 12 2 5 3 -8 12 -9 28 -3 18 7 23 6 19 -4 -7 -19 32 -13
57 10 12 10 20 14 16 8 -7 -12 37 -37 47 -27 10 10 7 25 -4 18 -6 -4 -7 1 -3
11 5 15 7 15 15 0 5 -9 6 -21 3 -26 -3 -6 3 -10 15 -10 12 0 18 -5 15 -10 -4
-7 -14 -6 -28 1 l-22 11 23 -21 c12 -12 22 -27 22 -34 0 -8 3 -9 8 -1 4 6 15
13 24 17 9 3 22 16 28 28 7 12 8 19 2 15 -5 -3 -16 2 -23 11 -12 15 -12 16 1
8 25 -16 40 -14 41 3 0 12 3 10 9 -5 11 -27 29 -31 25 -5 -1 9 0 12 2 5 3 -8
12 -9 28 -3 18 7 23 6 19 -4 -7 -19 32 -13 57 10 12 10 19 14 16 8 -8 -15 17
-25 40 -18 14 4 13 2 -2 -7 -11 -7 -33 -21 -49 -32 l-28 -20 7 24 c5 18 4 21
-4 9 -7 -9 -11 -10 -11 -3 0 6 -9 11 -20 10 -20 -1 -29 -17 -10 -17 19 0 25
-3 36 -18 8 -11 13 -12 18 -3 4 6 13 8 19 4 19 -12 37 -12 37 -1 0 6 -7 7 -16
4 -10 -4 -14 -2 -11 6 2 7 10 12 16 11 6 -2 11 2 11 7 0 6 9 10 21 10 11 0 18
4 15 8 -10 17 -15 62 -5 57 5 -4 8 -9 5 -13 -8 -16 12 -46 32 -47 12 -1 22 2
22 8 0 5 6 7 13 4 6 -2 19 -1 28 4 12 6 16 3 15 -16 -1 -13 -5 -27 -9 -31 -4
-4 -7 -14 -6 -23 0 -10 5 -6 11 9 6 14 10 28 10 32 -1 5 2 8 7 8 5 0 8 8 6 18
-1 9 0 12 2 5 3 -8 12 -9 28 -3 18 7 23 6 19 -4 -7 -19 32 -13 57 10 12 10 20
14 16 8 -7 -12 37 -37 47 -27 10 10 7 25 -4 18 -6 -4 -7 1 -3 11 5 15 7 15 15
0 5 -9 6 -21 3 -26 -3 -6 3 -10 15 -10 12 0 18 -5 15 -10 -4 -7 -14 -6 -28 1
l-22 11 23 -21 c12 -12 22 -27 22 -34 0 -8 3 -9 8 -1 4 6 15 13 24 17 9 3 22
16 28 28 7 12 8 19 2 15 -5 -3 -16 2 -23 11 -12 15 -12 16 1 8 25 -16 40 -14
41 3 0 12 3 10 9 -6 11 -26 29 -30 25 -4 -1 9 0 12 2 5 3 -8 12 -9 28 -3 18 7
23 6 19 -4 -7 -19 32 -13 57 10 12 10 19 14 16 8 -8 -15 17 -25 41 -18 13 4
12 2 -3 -7 -11 -7 -33 -21 -49 -32 l-28 -20 7 24 c5 18 4 21 -4 9 -7 -9 -11
-10 -11 -3 0 6 -9 11 -20 10 -20 -1 -29 -17 -10 -17 19 0 25 -3 36 -18 8 -11
13 -12 18 -3 4 6 13 8 19 4 19 -12 37 -12 37 -1 0 6 -7 7 -16 4 -10 -4 -14 -2
-11 6 2 7 10 12 16 11 6 -2 11 2 11 7 0 6 9 10 21 10 11 0 18 4 15 8 -10 17
-15 62 -5 57 5 -4 8 -9 5 -13 -8 -16 12 -46 32 -47 12 -1 22 2 22 8 0 5 6 7
13 4 6 -2 19 -1 28 4 12 6 16 3 15 -16 -1 -13 -5 -27 -9 -31 -4 -4 -7 -14 -6
-23 0 -10 5 -6 11 9 6 14 10 28 10 33 -1 4 2 7 7 7 5 0 8 8 6 17 -1 10 0 13 2
6 3 -8 12 -9 28 -3 18 7 23 6 19 -4 -7 -19 32 -13 57 10 12 10 20 14 16 8 -7
-12 37 -37 47 -27 10 10 7 25 -4 18 -6 -4 -7 1 -3 11 5 15 7 15 15 0 5 -9 6
-21 3 -26 -3 -6 3 -10 15 -10 12 0 18 -5 15 -10 -4 -7 -14 -6 -28 1 l-22 11
23 -21 c12 -12 22 -27 22 -34 0 -8 3 -9 8 -1 4 6 15 13 24 17 9 3 22 16 28 28
7 12 8 19 2 15 -5 -3 -16 2 -23 11 -12 15 -12 16 1 8 25 -16 40 -14 41 3 0 12
3 10 9 -5 11 -27 29 -31 25 -5 -1 9 0 12 2 5 3 -8 12 -9 28 -3 18 7 23 6 19
-4 -7 -19 32 -13 57 10 12 10 19 14 16 8 -8 -15 17 -25 40 -18 14 4 13 2 -2
-7 -11 -7 -33 -21 -49 -32 l-28 -20 7 24 c5 18 4 21 -4 9 -7 -9 -11 -10 -11
-3 0 6 -9 11 -20 10 -11 -1 -20 -5 -20 -9 0 -8 15 -11 25 -5 2 1 10 -7 18 -17
10 -13 16 -16 21 -7 4 6 13 8 19 4 19 -12 37 -12 37 -1 0 6 -7 7 -16 4 -10 -4
-14 -2 -11 6 2 7 10 12 16 11 6 -2 11 2 11 7 0 6 9 10 21 10 11 0 18 4 15 8
-10 17 -15 62 -5 57 5 -4 8 -9 5 -13 -8 -16 12 -46 32 -47 12 -1 22 2 22 8 0
5 6 7 13 4 6 -2 19 -1 28 4 12 6 16 3 15 -16 -1 -13 -5 -27 -9 -31 -4 -4 -7
-14 -6 -23 0 -10 5 -6 11 9 6 14 10 28 10 33 -1 4 2 7 7 7 5 0 8 8 6 18 -1 9
0 12 2 5 3 -8 12 -9 28 -3 18 7 23 6 19 -4 -7 -19 32 -13 57 10 12 10 20 14
16 8 -7 -12 37 -37 47 -27 10 10 7 25 -4 18 -6 -4 -7 1 -3 11 5 15 7 15 15 0
5 -9 6 -21 3 -26 -3 -6 3 -10 15 -10 12 0 18 -5 15 -10 -4 -7 -14 -6 -28 1
l-22 11 22 -21 c13 -12 23 -27 23 -34 0 -8 3 -9 8 -1 4 6 15 13 24 17 9 3 22
16 28 28 7 12 8 19 2 15 -5 -3 -16 2 -23 11 -12 15 -12 16 1 8 25 -16 40 -14
41 3 0 12 3 10 9 -5 11 -27 29 -31 25 -5 -1 9 0 12 2 5 3 -8 12 -9 28 -3 18 7
23 6 19 -4 -7 -19 32 -13 57 10 12 10 19 14 16 8 -8 -15 17 -25 40 -18 14 4
13 2 -2 -7 -11 -7 -33 -21 -49 -32 l-28 -20 7 24 c5 18 4 21 -4 9 -7 -9 -11
-10 -11 -3 0 6 -9 11 -20 10 -20 -1 -29 -17 -10 -17 19 0 25 -3 36 -18 8 -11
13 -12 18 -3 4 6 13 8 19 4 19 -12 37 -12 37 -1 0 6 -7 7 -16 4 -10 -4 -14 -2
-11 6 2 7 10 12 16 10 6 -1 11 2 11 8 0 5 9 10 21 10 11 0 18 4 15 8 -10 17
-15 62 -5 57 5 -4 8 -9 5 -13 -8 -16 12 -46 32 -47 12 -1 22 2 22 8 0 5 6 7
13 4 6 -2 21 0 32 6 11 5 17 6 13 2 -4 -5 -3 -14 4 -22 8 -10 7 -17 -7 -27
-10 -7 -15 -19 -12 -27 4 -10 6 -8 6 5 1 16 3 17 18 5 9 -8 14 -9 10 -2 -8 13
2 45 12 39 4 -3 7 14 8 35 2 36 0 39 -15 27 -15 -11 -15 -10 1 8 16 20 17 145
17 2355 0 1297 -4 2340 -9 2348 -7 11 -11 9 -20 -8 -11 -19 -8 -25 12 -22 4 0
7 -4 7 -9 0 -6 -5 -10 -11 -10 -8 0 -7 -6 2 -17 13 -17 12 -17 -5 -3 -16 13
-20 12 -32 -5 -8 -10 -14 -14 -14 -7 0 6 9 17 21 25 12 9 16 18 10 21 -5 4
-12 2 -16 -4 -4 -6 -11 -8 -16 -5 -5 4 -9 -2 -10 -12 0 -14 -2 -13 -10 6 -7
18 -12 21 -23 12 -7 -6 -16 -7 -21 -3 -4 4 -5 -4 -1 -18 3 -14 3 -19 0 -12 -3
6 -10 10 -15 7 -5 -4 -6 1 -3 9 3 9 1 16 -5 16 -10 0 -15 -14 -12 -33 1 -5 -3
-6 -8 -2 -6 3 -7 13 -4 23 6 16 5 16 -14 0 -11 -10 -24 -18 -29 -18 -5 0 0 6
10 12 18 10 18 11 -5 30 -13 11 -19 17 -12 14 6 -4 15 -1 19 5 4 8 3 9 -4 5
-7 -4 -12 -1 -12 6 0 8 -4 7 -11 -4 -5 -9 -16 -15 -24 -12 -8 4 -13 10 -10 14
3 4 -2 11 -10 14 -12 4 -13 2 -6 -13 6 -10 7 -21 3 -25 -3 -4 6 -5 21 -2 15 3
25 1 22 -4 -3 -5 3 -10 12 -12 13 -3 10 -6 -9 -9 -20 -5 -25 -3 -20 9 3 9 1
13 -5 9 -13 -8 -45 2 -39 12 3 4 1 13 -5 21 -8 14 -11 8 -8 -17 0 -7 -34 -23
-49 -22 -4 0 -10 -10 -14 -23 l-6 -23 -1 23 c-1 13 -5 20 -11 17 -6 -3 -10 -2
-10 3 0 11 -40 10 -58 -1 -7 -5 -10 -13 -7 -18 10 -15 -2 -10 -16 8 -12 15
-12 16 1 8 13 -8 13 -6 2 8 -8 9 -10 22 -6 28 4 8 3 9 -4 5 -7 -4 -12 -2 -12
4 0 6 -4 9 -9 6 -5 -4 -11 0 -14 6 -2 7 -4 0 -4 -16 0 -19 2 -24 8 -15 4 7 11
10 15 6 9 -9 -27 -37 -38 -31 -5 3 -8 1 -8 -5 0 -5 5 -11 10 -13 6 -2 0 -9
-12 -17 -16 -9 -20 -10 -11 -1 18 20 -3 56 -23 39 -8 -6 -14 -8 -14 -3 0 4 -7
-1 -15 -12 -14 -18 -16 -18 -29 -1 -10 13 -16 15 -22 6 -4 -7 1 -18 11 -26 11
-7 14 -13 8 -13 -14 0 -34 25 -31 38 2 6 -6 18 -17 27 -11 9 -15 14 -8 11 6
-4 15 -1 19 5 4 8 3 9 -4 5 -7 -4 -12 -1 -12 6 0 8 -4 7 -11 -4 -5 -9 -16 -15
-24 -12 -8 4 -13 10 -10 14 3 4 -2 11 -10 14 -12 4 -13 2 -6 -13 6 -10 7 -21
3 -25 -3 -4 6 -5 21 -2 15 3 25 1 22 -4 -3 -5 3 -10 12 -12 13 -3 10 -6 -9 -9
-20 -5 -25 -3 -20 9 3 9 1 13 -5 9 -13 -8 -45 2 -39 12 3 4 1 13 -5 21 -8 14
-11 8 -8 -17 1 -8 -42 -27 -55 -24 -5 1 -6 -4 -3 -12 3 -8 1 -20 -5 -28 -8
-11 -9 -11 -5 2 3 9 -1 26 -8 36 -13 18 -12 20 13 18 35 -2 42 2 35 22 -5 13
-8 14 -17 2 -12 -15 -36 -23 -36 -13 0 4 8 13 18 21 15 13 15 13 -5 3 -13 -6
-23 -14 -23 -18 0 -4 -13 -8 -29 -8 -20 -1 -28 2 -25 11 3 7 1 16 -4 19 -5 3
-9 -2 -8 -11 0 -9 -5 -18 -12 -20 -8 -3 -10 1 -5 13 4 11 3 15 -5 10 -11 -6
-13 -46 -2 -46 3 0 11 5 17 11 15 15 22 -1 12 -26 -6 -17 -8 -17 -8 -3 -1 11
-6 15 -16 12 -13 -5 -13 -9 -3 -23 12 -14 11 -15 -6 -1 -16 13 -20 12 -32 -5
-8 -10 -14 -14 -14 -7 0 6 9 17 21 25 12 9 16 18 10 21 -5 4 -12 2 -16 -4 -4
-6 -11 -8 -16 -5 -5 4 -9 -2 -10 -12 0 -14 -2 -13 -10 6 -7 18 -12 21 -23 12
-7 -6 -16 -7 -21 -3 -4 4 -5 -4 -1 -18 3 -14 3 -19 0 -12 -3 6 -10 10 -15 7
-5 -4 -6 1 -3 9 3 9 1 16 -5 16 -10 0 -15 -14 -12 -33 1 -5 -3 -6 -8 -2 -6 3
-7 13 -4 23 6 15 5 15 -11 3 -9 -8 -16 -9 -14 -3 2 6 -6 18 -17 27 -11 9 -15
14 -8 11 6 -4 15 -1 19 5 4 8 3 9 -4 5 -7 -4 -12 -1 -12 6 0 8 -4 7 -11 -4 -5
-9 -16 -15 -24 -12 -8 4 -13 10 -10 14 3 4 -2 11 -10 14 -12 4 -13 2 -6 -13 6
-10 7 -21 3 -25 -3 -4 6 -5 21 -2 15 3 25 1 22 -4 -3 -5 3 -11 12 -13 13 -3
12 -5 -5 -6 -13 0 -21 -5 -18 -10 7 -11 -20 -8 -31 3 -4 4 -2 6 6 4 7 -2 16 3
19 11 3 8 0 11 -7 7 -11 -7 -43 6 -42 17 3 24 0 31 -8 17 -6 -8 -7 -18 -5 -22
6 -10 2 -10 -99 -12 -76 -1 -78 -1 -98 29 -11 16 -19 23 -18 15 3 -28 -1 -41
-10 -35 -5 3 -12 1 -16 -4 -3 -6 4 -8 15 -6 11 2 18 0 15 -6 -4 -5 -11 -7 -16
-4 -5 4 -9 2 -9 -4 0 -5 5 -11 10 -13 6 -2 0 -9 -12 -17 -16 -9 -20 -10 -11
-1 18 20 -3 56 -23 39 -8 -6 -14 -8 -14 -3 0 4 -7 -1 -15 -12 -14 -18 -16 -18
-29 -1 -10 13 -16 15 -22 6 -4 -7 1 -18 11 -26 11 -7 14 -13 8 -13 -14 0 -34
25 -31 38 2 6 -6 18 -17 27 -11 9 -15 14 -8 11 6 -4 15 -1 19 5 4 8 3 9 -4 5
-7 -4 -12 -1 -12 6 0 8 -4 7 -11 -4 -5 -9 -16 -15 -24 -12 -8 4 -13 10 -10 14
3 4 -2 11 -10 14 -12 4 -13 2 -6 -13 6 -10 7 -21 3 -25 -3 -4 6 -5 21 -2 15 3
25 1 22 -4 -3 -5 3 -10 12 -12 13 -3 10 -6 -9 -9 -20 -5 -25 -3 -20 9 3 9 1
13 -5 9 -13 -8 -45 2 -39 12 3 4 1 13 -5 21 -6 10 -9 11 -9 3 0 -7 0 -16 -1
-20 0 -9 -40 -27 -53 -24 -5 1 -6 -4 -3 -12 3 -8 1 -20 -5 -28 -8 -11 -9 -11
-5 2 3 9 -1 26 -8 36 -13 18 -12 20 13 18 35 -2 42 2 35 22 -5 13 -8 14 -17 2
-12 -15 -36 -23 -36 -13 0 4 8 13 18 21 15 13 15 13 -5 3 -13 -6 -23 -14 -23
-18 0 -4 -13 -8 -29 -8 -20 -1 -28 2 -25 11 3 7 1 16 -4 19 -5 3 -9 -2 -8 -11
0 -9 -5 -18 -12 -20 -8 -3 -10 1 -5 13 4 11 3 15 -5 10 -11 -6 -13 -46 -2 -46
3 0 11 5 17 11 15 15 22 -1 12 -26 -6 -17 -8 -17 -8 -3 -1 11 -6 15 -16 12
-13 -5 -13 -9 -3 -23 12 -14 11 -15 -6 -1 -16 13 -20 12 -32 -5 -8 -10 -14
-14 -14 -7 0 6 9 17 21 25 12 9 16 18 10 21 -5 4 -12 2 -16 -4 -4 -6 -11 -8
-16 -5 -5 4 -9 -2 -10 -12 0 -14 -2 -13 -10 6 -7 18 -12 21 -23 12 -7 -6 -16
-7 -21 -3 -4 4 -5 -4 -1 -18 3 -14 3 -19 0 -12 -3 6 -10 10 -15 7 -5 -4 -6 1
-3 9 3 9 1 16 -5 16 -10 0 -15 -14 -12 -33 1 -5 -3 -6 -8 -2 -6 3 -7 13 -4 23
6 16 5 16 -14 0 -11 -10 -24 -18 -29 -18 -5 0 0 6 10 12 18 10 18 11 -5 30
-13 11 -19 17 -12 14 6 -4 15 -1 19 5 4 8 3 9 -4 5 -7 -4 -12 -1 -12 6 0 8 -4
7 -11 -4 -5 -9 -16 -15 -24 -12 -8 4 -13 10 -10 14 3 4 -2 11 -10 14 -12 4
-13 2 -6 -13 6 -10 7 -21 3 -25 -3 -4 6 -5 21 -2 15 3 25 1 22 -4 -3 -5 3 -10
12 -12 13 -3 10 -6 -9 -9 -20 -5 -25 -3 -20 9 3 9 1 13 -5 9 -13 -8 -45 2 -39
12 3 4 1 13 -5 21 -6 10 -9 11 -9 3 0 -7 0 -16 -1 -20 0 -8 -39 -25 -49 -23
-3 1 -8 -9 -12 -22 l-6 -23 -1 23 c-1 13 -5 20 -11 17 -5 -3 -10 -2 -10 3 0
11 -40 10 -58 -1 -7 -5 -10 -13 -7 -18 10 -15 -2 -10 -16 8 -12 15 -12 16 1 8
13 -8 13 -6 2 8 -8 9 -10 22 -6 28 4 8 3 9 -4 5 -7 -4 -12 -2 -12 4 0 6 -4 9
-9 6 -5 -4 -11 0 -14 6 -2 7 -4 0 -4 -16 0 -19 2 -24 8 -15 4 7 11 10 15 6 9
-9 -27 -37 -38 -31 -5 3 -8 1 -8 -5 0 -5 5 -11 10 -13 6 -2 0 -9 -12 -17 -16
-9 -20 -10 -11 -1 18 20 -3 56 -23 39 -8 -6 -14 -8 -14 -3 0 4 -7 -1 -15 -12
-14 -18 -16 -18 -29 -1 -10 13 -16 15 -22 6 -4 -7 1 -18 11 -26 11 -7 14 -13
8 -13 -14 0 -34 25 -31 38 2 6 -6 18 -17 27 -11 9 -15 14 -8 11 6 -4 15 -1 19
5 4 8 3 9 -4 5 -7 -4 -12 -1 -12 6 0 8 -4 7 -11 -4 -5 -9 -16 -15 -24 -12 -8
4 -13 10 -10 14 3 4 -2 11 -10 14 -12 4 -13 2 -6 -13 6 -10 7 -21 3 -25 -3 -4
6 -5 21 -2 15 3 25 1 22 -4 -3 -5 3 -10 12 -12 13 -3 10 -6 -9 -9 -20 -5 -25
-3 -20 9 3 9 1 13 -5 9 -13 -8 -45 2 -39 12 3 4 1 13 -5 21 -6 10 -9 11 -9 3
0 -7 0 -16 -1 -20 0 -9 -40 -27 -53 -24 -5 1 -6 -4 -3 -12 3 -8 1 -20 -5 -28
-8 -11 -9 -11 -5 2 3 9 -1 26 -8 36 -13 18 -12 20 13 18 35 -2 42 2 35 22 -5
13 -8 14 -17 2 -12 -15 -36 -23 -36 -13 0 4 8 13 18 21 15 13 15 13 -5 3 -13
-6 -23 -14 -23 -18 0 -4 -13 -8 -29 -8 -20 -1 -28 2 -25 11 3 7 1 16 -4 19 -5
3 -9 -2 -8 -11 0 -9 -5 -18 -12 -20 -8 -3 -10 1 -5 13 4 11 3 15 -5 10 -11 -6
-13 -46 -2 -46 3 0 11 5 17 11 15 15 22 -1 12 -26 -6 -17 -8 -17 -8 -3 -1 11
-6 15 -16 12 -13 -5 -13 -9 -3 -23 12 -14 11 -15 -6 -1 -16 13 -20 12 -32 -5
-8 -10 -14 -14 -14 -7 0 6 9 17 21 25 12 9 16 18 10 21 -5 4 -12 2 -16 -4 -4
-6 -11 -8 -16 -5 -5 4 -9 -2 -10 -12 0 -14 -2 -13 -10 6 -7 18 -12 21 -23 12
-7 -6 -16 -7 -21 -3 -4 4 -5 -4 -1 -18 3 -14 3 -19 0 -12 -3 6 -10 10 -15 7
-5 -4 -6 1 -3 9 3 9 1 16 -5 16 -10 0 -15 -14 -12 -33 1 -5 -3 -6 -8 -2 -6 3
-7 13 -4 23 6 15 5 15 -11 3 -9 -8 -16 -9 -14 -3 2 6 -6 18 -17 27 -11 9 -15
14 -8 11 6 -4 15 -1 19 5 4 8 3 9 -4 5 -7 -4 -12 -1 -12 6 0 8 -4 7 -11 -4 -5
-9 -16 -15 -24 -12 -8 4 -13 10 -10 14 3 4 -2 11 -10 14 -12 4 -13 2 -6 -13 6
-10 7 -21 3 -25 -3 -4 6 -5 21 -2 15 3 25 1 22 -4 -3 -5 3 -11 12 -13 13 -3
12 -5 -5 -6 -13 0 -21 -5 -18 -10 7 -11 -20 -8 -31 3 -4 4 -2 6 6 4 7 -1 16 3
19 11 3 8 0 11 -7 7 -11 -7 -48 8 -43 18 1 3 2 12 2 19 0 8 -3 7 -9 -3 -6 -8
-7 -18 -5 -22 6 -10 2 -10 -99 -12 -76 -1 -78 -1 -98 29 -11 16 -19 23 -18 15
3 -28 -1 -41 -10 -35 -5 3 -12 1 -16 -4 -3 -6 4 -8 15 -6 11 2 18 0 15 -6 -4
-5 -11 -7 -16 -4 -5 4 -9 2 -9 -4 0 -5 5 -11 10 -13 6 -2 0 -9 -12 -17 -16 -9
-20 -10 -11 -1 18 20 -3 56 -23 39 -8 -6 -14 -8 -14 -3 0 4 -7 -1 -15 -12 -14
-18 -16 -18 -29 -1 -10 13 -16 15 -22 6 -4 -7 1 -18 11 -26 11 -7 14 -13 8
-13 -14 0 -34 25 -31 38 2 6 -6 18 -17 27 -11 9 -15 14 -8 11 6 -4 15 -1 19 5
4 8 3 9 -4 5 -7 -4 -12 -1 -12 6 0 8 -4 7 -11 -4 -5 -9 -16 -15 -24 -12 -8 4
-13 10 -10 14 3 4 -2 11 -10 14 -12 4 -13 2 -6 -13 6 -10 7 -21 3 -25 -3 -4 6
-5 21 -2 15 3 25 1 22 -4 -3 -5 3 -10 12 -12 13 -3 10 -6 -9 -9 -20 -5 -25 -3
-20 9 3 9 1 13 -5 9 -13 -8 -45 2 -39 12 3 4 1 13 -5 21 -6 10 -9 11 -9 3 0
-7 0 -16 -1 -20 0 -9 -40 -27 -53 -24 -5 1 -6 -4 -3 -12 3 -8 1 -20 -5 -28 -8
-11 -9 -11 -5 2 3 9 -1 26 -8 36 -13 18 -12 20 13 18 35 -2 42 2 35 22 -5 13
-8 14 -17 2 -12 -15 -36 -23 -36 -13 0 4 8 13 17 21 16 13 16 13 -4 3 -13 -6
-23 -14 -23 -18 0 -4 -13 -8 -29 -8 -20 -1 -28 2 -25 11 3 7 1 16 -4 19 -5 3
-9 -2 -8 -11 0 -9 -5 -18 -12 -20 -8 -3 -10 1 -5 13 4 11 3 15 -5 10 -11 -6
-13 -46 -2 -46 3 0 11 5 17 11 15 15 22 -1 12 -26 -6 -17 -8 -17 -8 -3 -1 11
-6 15 -16 12 -13 -5 -13 -9 -3 -23 12 -14 11 -15 -6 -1 -16 13 -20 12 -32 -5
-8 -10 -14 -14 -14 -7 0 6 9 17 21 25 12 9 16 18 10 21 -5 4 -12 2 -16 -4 -4
-6 -11 -8 -16 -5 -5 4 -9 -2 -10 -12 0 -14 -2 -13 -10 6 -7 18 -12 21 -23 12
-7 -6 -16 -7 -21 -3 -4 4 -5 -4 -1 -18 3 -14 3 -19 0 -12 -3 6 -10 10 -15 7
-5 -4 -6 1 -3 9 3 9 1 16 -5 16 -10 0 -15 -14 -12 -33 1 -5 -3 -6 -8 -2 -6 3
-7 13 -4 23 6 16 5 16 -14 0 -11 -10 -24 -18 -29 -18 -5 0 0 6 10 12 18 10 18
11 -5 30 -13 11 -19 17 -12 14 6 -4 15 -1 19 5 4 8 3 9 -4 5 -7 -4 -12 -1 -12
6 0 8 -4 7 -11 -4 -5 -9 -16 -15 -24 -12 -8 4 -13 10 -10 14 3 4 -2 11 -10 14
-12 4 -13 2 -6 -13 6 -10 7 -21 3 -25 -3 -4 6 -5 21 -2 15 3 25 1 22 -4 -3 -5
3 -10 12 -12 13 -3 10 -6 -9 -9 -20 -5 -25 -3 -20 9 3 9 1 13 -5 9 -13 -8 -45
2 -39 12 3 4 1 13 -5 21 -6 10 -9 11 -9 3 0 -7 0 -16 -1 -20 0 -8 -26 -20 -44
-21 -5 -1 -13 -11 -17 -24 l-6 -23 -1 23 c-1 13 -5 20 -11 17 -5 -3 -10 -2
-10 3 0 11 -40 10 -58 -1 -7 -5 -10 -13 -7 -18 10 -15 -2 -10 -16 8 -12 15
-12 16 1 8 13 -8 13 -6 2 8 -8 9 -10 22 -6 28 4 8 3 9 -4 5 -7 -4 -12 -2 -12
4 0 6 -4 9 -9 6 -5 -4 -11 0 -14 6 -2 7 -4 0 -4 -16 0 -19 2 -24 8 -15 4 7 11
10 15 6 9 -9 -27 -37 -38 -31 -5 3 -8 1 -8 -5 0 -5 5 -11 10 -13 6 -2 0 -9
-12 -17 -16 -9 -20 -10 -11 -1 18 20 -3 56 -23 39 -8 -6 -14 -8 -14 -3 0 4 -7
-1 -15 -12 -14 -18 -16 -18 -29 -1 -10 13 -16 15 -22 6 -4 -7 1 -18 11 -26 11
-7 14 -13 8 -13 -14 0 -34 25 -31 38 2 6 -6 18 -17 27 -11 9 -15 14 -8 11 6
-4 15 -1 19 5 4 8 3 9 -4 5 -7 -4 -12 -1 -12 6 0 8 -4 7 -11 -4 -5 -9 -16 -15
-24 -12 -8 4 -13 10 -10 14 3 4 -2 11 -10 14 -12 4 -13 2 -6 -13 6 -10 7 -21
3 -25 -3 -4 6 -5 21 -2 15 3 25 1 22 -4 -3 -5 3 -10 12 -12 13 -3 10 -6 -9 -9
-20 -5 -25 -3 -20 9 3 9 1 13 -5 9 -13 -8 -45 2 -39 12 3 4 1 13 -5 21 -6 10
-9 11 -9 3 0 -7 0 -16 -1 -20 0 -9 -40 -27 -53 -24 -5 1 -6 -4 -3 -12 3 -8 1
-20 -5 -28 -8 -11 -9 -11 -5 2 3 9 -1 26 -8 36 -13 18 -12 20 13 18 35 -2 42
2 35 22 -5 13 -8 14 -17 2 -12 -15 -36 -23 -36 -13 0 4 8 13 18 21 15 13 15
13 -5 3 -13 -6 -23 -14 -23 -18 0 -4 -13 -8 -29 -8 -20 -1 -28 2 -25 11 3 7 1
16 -4 19 -5 3 -9 -2 -8 -11z m1412 -76 c-2 -7 -5 -4 -5 6 -1 10 -4 16 -8 14
-5 -3 -9 7 -10 21 l-1 27 15 -28 c8 -16 12 -34 9 -40z m1920 0 c-2 -7 -5 -4
-5 6 -1 10 -4 16 -8 14 -5 -3 -9 7 -10 21 l-1 27 15 -28 c8 -16 12 -34 9 -40z
m-3361 43 c-8 -13 8 -13 22 1 15 15 22 -1 12 -26 -6 -17 -8 -17 -8 -3 -1 11
-6 15 -16 12 -13 -5 -13 -9 -3 -23 12 -14 11 -15 -6 -1 -16 13 -20 12 -32 -5
-8 -10 -14 -14 -14 -7 0 6 10 18 22 26 12 9 19 16 15 16 -5 0 -5 5 -2 10 3 6
8 10 11 10 3 0 2 -4 -1 -10z m78 -7 c-3 -7 -9 -13 -14 -13 -5 0 -9 -7 -9 -17
0 -9 -3 -14 -6 -10 -4 3 -3 14 1 24 5 10 8 21 7 24 0 3 5 6 13 6 7 0 11 -6 8
-14z m960 0 c-3 -7 -9 -13 -14 -13 -5 0 -9 -7 -9 -17 0 -9 -3 -14 -6 -10 -4 3
-3 14 1 24 5 10 8 21 7 24 0 3 5 6 13 6 7 0 11 -6 8 -14z m960 0 c-3 -7 -9
-13 -14 -13 -5 0 -9 -7 -9 -17 0 -9 -3 -14 -6 -10 -4 3 -3 14 1 24 5 10 8 21
7 24 0 3 5 6 13 6 7 0 11 -6 8 -14z m960 0 c-3 -7 -9 -13 -14 -13 -5 0 -9 -7
-9 -17 0 -9 -3 -14 -6 -10 -4 3 -3 14 1 24 5 10 8 21 7 24 0 3 5 6 13 6 7 0
11 -6 8 -14z m960 0 c-3 -7 -9 -13 -14 -13 -5 0 -9 -7 -9 -17 0 -9 -3 -14 -6
-10 -4 3 -3 14 1 24 5 10 8 21 7 24 0 3 5 6 13 6 7 0 11 -6 8 -14z m-3819 -19
c3 -8 2 -12 -4 -9 -6 3 -10 1 -10 -6 0 -7 -2 -10 -5 -7 -5 5 4 38 10 38 2 0 6
-7 9 -16z m96 9 c-8 -3 -24 -10 -35 -15 -20 -9 -20 -9 -1 6 11 9 27 16 35 15
14 0 14 -1 1 -6z m368 -18 c-3 -3 -9 2 -12 12 -6 14 -5 15 5 6 7 -7 10 -15 7
-18z m107 15 c-27 -12 -43 -12 -25 0 8 5 22 9 30 9 10 0 8 -3 -5 -9z m389 -6
c3 -8 2 -12 -4 -9 -6 3 -10 1 -10 -6 0 -7 -2 -10 -5 -7 -5 5 4 38 10 38 2 0 6
-7 9 -16z m96 9 c-8 -3 -24 -10 -35 -15 -20 -9 -20 -9 -1 6 11 9 27 16 35 15
14 0 14 -1 1 -6z m339 -19 c-14 -13 -16 -13 -16 0 0 8 4 13 9 10 4 -3 8 0 8 7
0 7 3 9 7 5 4 -3 0 -13 -8 -22z m58 13 c0 -8 -6 -14 -14 -14 -9 0 -10 4 -2 14
6 7 12 13 14 13 1 0 2 -6 2 -13z m83 6 c-8 -3 -18 -11 -22 -17 -4 -6 -10 -7
-15 -3 -9 10 16 27 37 26 13 -1 13 -1 0 -6z m384 -9 c3 -8 2 -12 -4 -9 -6 3
-10 1 -10 -6 0 -7 -2 -10 -5 -7 -5 5 4 38 10 38 2 0 6 -7 9 -16z m96 9 c-8 -3
-24 -10 -35 -15 -20 -9 -20 -9 -1 6 11 9 27 16 35 15 14 0 14 -1 1 -6z m368
-18 c-3 -3 -9 2 -12 12 -6 14 -5 15 5 6 7 -7 10 -15 7 -18z m107 15 c-27 -12
-43 -12 -25 0 8 5 22 9 30 9 10 0 8 -3 -5 -9z m389 -6 c3 -8 2 -12 -4 -9 -6 3
-10 1 -10 -6 0 -7 -2 -10 -5 -7 -5 5 4 38 10 38 2 0 6 -7 9 -16z m96 9 c-8 -3
-24 -10 -35 -15 -20 -9 -20 -9 -1 6 11 9 27 16 35 15 14 0 14 -1 1 -6z m339
-19 c-14 -13 -16 -13 -16 0 0 8 4 13 9 10 4 -3 8 0 8 7 0 7 3 9 7 5 4 -3 0
-13 -8 -22z m58 13 c0 -8 -6 -14 -14 -14 -9 0 -10 4 -2 14 6 7 12 13 14 13 1
0 2 -6 2 -13z m83 6 c-8 -3 -18 -11 -22 -17 -4 -6 -10 -7 -15 -3 -9 10 16 27
37 26 13 -1 13 -1 0 -6z m384 -9 c3 -8 2 -12 -4 -9 -6 3 -10 1 -10 -6 0 -7 -2
-10 -5 -7 -5 5 4 38 10 38 2 0 6 -7 9 -16z m96 9 c-8 -3 -24 -10 -35 -15 -20
-9 -20 -9 -1 6 11 9 27 16 35 15 14 0 14 -1 1 -6z m368 -18 c-3 -3 -9 2 -12
12 -6 14 -5 15 5 6 7 -7 10 -15 7 -18z m107 15 c-27 -12 -43 -12 -25 0 8 5 22
9 30 9 10 0 8 -3 -5 -9z m-4588 -22 c-3 -8 -6 -5 -6 6 -1 11 2 17 5 13 3 -3 4
-12 1 -19z m318 -7 c-6 -5 -25 10 -25 20 0 5 6 4 14 -3 8 -7 12 -15 11 -17z
m232 9 c-1 -21 -10 -18 -13 5 -1 8 2 15 6 15 5 0 8 -9 7 -20z m72 2 c7 -13 6
-19 -2 -19 -7 0 -13 9 -13 19 0 10 1 18 3 18 1 0 7 -8 12 -18z m338 -4 c-3 -8
-6 -5 -6 6 -1 11 2 17 5 13 3 -3 4 -12 1 -19z m318 -7 c-6 -5 -25 10 -25 20 0
5 6 4 14 -3 8 -7 12 -15 11 -17z m642 7 c-3 -8 -6 -5 -6 6 -1 11 2 17 5 13 3
-3 4 -12 1 -19z m318 -7 c-6 -5 -25 10 -25 20 0 5 6 4 14 -3 8 -7 12 -15 11
-17z m232 9 c-1 -21 -10 -18 -13 5 -1 8 2 15 6 15 5 0 8 -9 7 -20z m72 2 c7
-13 6 -19 -2 -19 -7 0 -13 9 -13 19 0 10 1 18 3 18 1 0 7 -8 12 -18z m338 -4
c-3 -8 -6 -5 -6 6 -1 11 2 17 5 13 3 -3 4 -12 1 -19z m318 -7 c-6 -5 -25 10
-25 20 0 5 6 4 14 -3 8 -7 12 -15 11 -17z m642 7 c-3 -8 -6 -5 -6 6 -1 11 2
17 5 13 3 -3 4 -12 1 -19z m318 -7 c-6 -5 -25 10 -25 20 0 5 6 4 14 -3 8 -7
12 -15 11 -17z m232 9 c-1 -21 -10 -18 -13 5 -1 8 2 15 6 15 5 0 8 -9 7 -20z
m72 2 c7 -13 6 -19 -2 -19 -7 0 -13 9 -13 19 0 10 1 18 3 18 1 0 7 -8 12 -18z
m338 -4 c-3 -8 -6 -5 -6 6 -1 11 2 17 5 13 3 -3 4 -12 1 -19z m-4082 -6 c-3
-3 -11 0 -18 7 -9 10 -8 11 6 5 10 -3 15 -9 12 -12z m1920 0 c-3 -3 -11 0 -18
7 -9 10 -8 11 6 5 10 -3 15 -9 12 -12z m1920 0 c-3 -3 -11 0 -18 7 -9 10 -8
11 6 5 10 -3 15 -9 12 -12z m-4282 1 c-7 -2 -19 -2 -25 0 -7 3 -2 5 12 5 14 0
19 -2 13 -5z m531 -1 c3 -5 -1 -9 -9 -9 -8 0 -12 4 -9 9 3 4 7 8 9 8 2 0 6 -4
9 -8z m429 1 c-7 -2 -19 -2 -25 0 -7 3 -2 5 12 5 14 0 19 -2 13 -5z m377 -8
c0 -2 -9 -3 -19 -2 -11 0 -18 5 -15 9 4 6 34 0 34 -7z m182 8 c-6 -2 -9 -10
-6 -15 4 -7 2 -8 -5 -4 -13 9 -5 26 12 25 9 0 8 -2 -1 -6z m401 0 c-7 -2 -19
-2 -25 0 -7 3 -2 5 12 5 14 0 19 -2 13 -5z m531 -1 c3 -5 -1 -9 -9 -9 -8 0
-12 4 -9 9 3 4 7 8 9 8 2 0 6 -4 9 -8z m429 1 c-7 -2 -19 -2 -25 0 -7 3 -2 5
12 5 14 0 19 -2 13 -5z m377 -8 c0 -2 -9 -3 -19 -2 -11 0 -18 5 -15 9 4 6 34
0 34 -7z m182 8 c-6 -2 -9 -10 -6 -15 4 -7 2 -8 -5 -4 -13 9 -5 26 12 25 9 0
8 -2 -1 -6z m401 0 c-7 -2 -19 -2 -25 0 -7 3 -2 5 12 5 14 0 19 -2 13 -5z
m531 -1 c3 -5 -1 -9 -9 -9 -8 0 -12 4 -9 9 3 4 7 8 9 8 2 0 6 -4 9 -8z m-4578
-28 c1 -9 0 -13 -4 -10 -3 4 -7 14 -8 22 -1 9 0 13 4 10 3 -4 7 -14 8 -22z
m960 0 c1 -9 0 -13 -4 -10 -3 4 -7 14 -8 22 -1 9 0 13 4 10 3 -4 7 -14 8 -22z
m960 0 c1 -9 0 -13 -4 -10 -3 4 -7 14 -8 22 -1 9 0 13 4 10 3 -4 7 -14 8 -22z
m960 0 c1 -9 0 -13 -4 -10 -3 4 -7 14 -8 22 -1 9 0 13 4 10 3 -4 7 -14 8 -22z
m960 0 c1 -9 0 -13 -4 -10 -3 4 -7 14 -8 22 -1 9 0 13 4 10 3 -4 7 -14 8 -22z
m959 17 c3 -5 2 -12 -3 -15 -5 -3 -9 1 -9 9 0 17 3 19 12 6z m-4905 -7 c0 -8
-19 -13 -24 -6 -3 5 1 9 9 9 8 0 15 -2 15 -3z m160 0 c0 -8 -19 -13 -24 -6 -3
5 1 9 9 9 8 0 15 -2 15 -3z m800 0 c0 -8 -19 -13 -24 -6 -3 5 1 9 9 9 8 0 15
-2 15 -3z m160 0 c0 -8 -19 -13 -24 -6 -3 5 1 9 9 9 8 0 15 -2 15 -3z m750 2
c0 -2 -7 -7 -16 -10 -8 -3 -12 -2 -9 4 6 10 25 14 25 6z m50 -2 c0 -8 -19 -13
-24 -6 -3 5 1 9 9 9 8 0 15 -2 15 -3z m160 0 c0 -8 -19 -13 -24 -6 -3 5 1 9 9
9 8 0 15 -2 15 -3z m800 0 c0 -8 -19 -13 -24 -6 -3 5 1 9 9 9 8 0 15 -2 15 -3z
m160 0 c0 -8 -19 -13 -24 -6 -3 5 1 9 9 9 8 0 15 -2 15 -3z m750 2 c0 -2 -7
-7 -16 -10 -8 -3 -12 -2 -9 4 6 10 25 14 25 6z m50 -2 c0 -8 -19 -13 -24 -6
-3 5 1 9 9 9 8 0 15 -2 15 -3z m160 0 c0 -8 -19 -13 -24 -6 -3 5 1 9 9 9 8 0
15 -2 15 -3z m800 0 c0 -8 -19 -13 -24 -6 -3 5 1 9 9 9 8 0 15 -2 15 -3z
m-4355 -13 c3 -5 2 -12 -3 -15 -5 -3 -9 1 -9 9 0 17 3 19 12 6z m42 -6 c0 -8
-4 -12 -9 -9 -5 3 -6 10 -3 15 9 13 12 11 12 -6z m918 6 c3 -5 2 -12 -3 -15
-5 -3 -9 1 -9 9 0 17 3 19 12 6z m42 -6 c0 -8 -4 -12 -9 -9 -5 3 -6 10 -3 15
9 13 12 11 12 -6z m198 6 c3 -5 2 -12 -3 -15 -5 -3 -9 1 -9 9 0 17 3 19 12 6z
m720 0 c3 -5 2 -12 -3 -15 -5 -3 -9 1 -9 9 0 17 3 19 12 6z m42 -6 c0 -8 -4
-12 -9 -9 -5 3 -6 10 -3 15 9 13 12 11 12 -6z m918 6 c3 -5 2 -12 -3 -15 -5
-3 -9 1 -9 9 0 17 3 19 12 6z m42 -6 c0 -8 -4 -12 -9 -9 -5 3 -6 10 -3 15 9
13 12 11 12 -6z m198 6 c3 -5 2 -12 -3 -15 -5 -3 -9 1 -9 9 0 17 3 19 12 6z
m720 0 c3 -5 2 -12 -3 -15 -5 -3 -9 1 -9 9 0 17 3 19 12 6z m42 -6 c0 -8 -4
-12 -9 -9 -5 3 -6 10 -3 15 9 13 12 11 12 -6z m-3917 -5 c0 -5 -2 -10 -4 -10
-3 0 -8 5 -11 10 -3 6 -1 10 4 10 6 0 11 -4 11 -10z m400 0 c0 -5 -2 -10 -4
-10 -3 0 -8 5 -11 10 -3 6 -1 10 4 10 6 0 11 -4 11 -10z m560 0 c0 -5 -2 -10
-4 -10 -3 0 -8 5 -11 10 -3 6 -1 10 4 10 6 0 11 -4 11 -10z m320 0 c0 -5 -2
-10 -4 -10 -3 0 -8 5 -11 10 -3 6 -1 10 4 10 6 0 11 -4 11 -10z m640 0 c0 -5
-2 -10 -4 -10 -3 0 -8 5 -11 10 -3 6 -1 10 4 10 6 0 11 -4 11 -10z m400 0 c0
-5 -2 -10 -4 -10 -3 0 -8 5 -11 10 -3 6 -1 10 4 10 6 0 11 -4 11 -10z m560 0
c0 -5 -2 -10 -4 -10 -3 0 -8 5 -11 10 -3 6 -1 10 4 10 6 0 11 -4 11 -10z m320
0 c0 -5 -2 -10 -4 -10 -3 0 -8 5 -11 10 -3 6 -1 10 4 10 6 0 11 -4 11 -10z
m640 0 c0 -5 -2 -10 -4 -10 -3 0 -8 5 -11 10 -3 6 -1 10 4 10 6 0 11 -4 11
-10z m400 0 c0 -5 -2 -10 -4 -10 -3 0 -8 5 -11 10 -3 6 -1 10 4 10 6 0 11 -4
11 -10z m280 0 c0 -5 -5 -10 -11 -10 -5 0 -7 5 -4 10 3 6 8 10 11 10 2 0 4 -4
4 -10z m-4215 -20 c3 -6 -1 -7 -9 -4 -18 7 -21 14 -7 14 6 0 13 -4 16 -10z
m169 -6 c3 -8 2 -12 -4 -9 -6 3 -10 10 -10 16 0 14 7 11 14 -7z m1751 6 c3 -6
-1 -7 -9 -4 -18 7 -21 14 -7 14 6 0 13 -4 16 -10z m169 -6 c3 -8 2 -12 -4 -9
-6 3 -10 10 -10 16 0 14 7 11 14 -7z m1751 6 c3 -6 -1 -7 -9 -4 -18 7 -21 14
-7 14 6 0 13 -4 16 -10z m169 -6 c3 -8 2 -12 -4 -9 -6 3 -10 10 -10 16 0 14 7
11 14 -7z m-4397 -4539 c0 -8 -4 -12 -9 -9 -5 3 -6 10 -3 15 9 13 12 11 12 -6z
m240 -5 c1 -11 -2 -22 -6 -24 -6 -4 -7 26 -2 42 3 8 7 -1 8 -18z m400 5 c0 -8
-4 -12 -9 -9 -5 3 -6 10 -3 15 9 13 12 11 12 -6z m240 -5 c1 -11 -2 -22 -6
-24 -6 -4 -7 26 -2 42 3 8 7 -1 8 -18z m400 5 c0 -8 -4 -12 -9 -9 -5 3 -6 10
-3 15 9 13 12 11 12 -6z m240 -5 c1 -11 -2 -22 -6 -24 -6 -4 -7 26 -2 42 3 8
7 -1 8 -18z m400 5 c0 -8 -4 -12 -9 -9 -5 3 -6 10 -3 15 9 13 12 11 12 -6z
m240 -5 c1 -11 -2 -22 -6 -24 -6 -4 -7 26 -2 42 3 8 7 -1 8 -18z m400 5 c0 -8
-4 -12 -9 -9 -5 3 -6 10 -3 15 9 13 12 11 12 -6z m240 -5 c1 -11 -2 -22 -6
-24 -6 -4 -7 26 -2 42 3 8 7 -1 8 -18z m400 5 c0 -8 -4 -12 -9 -9 -5 3 -6 10
-3 15 9 13 12 11 12 -6z m240 -5 c1 -11 -2 -22 -6 -24 -6 -4 -7 26 -2 42 3 8
7 -1 8 -18z m400 5 c0 -8 -4 -12 -9 -9 -5 3 -6 10 -3 15 9 13 12 11 12 -6z
m240 -5 c1 -11 -2 -22 -6 -24 -6 -4 -7 26 -2 42 3 8 7 -1 8 -18z m-4137 7 c0
-2 -10 -12 -22 -23 l-23 -19 19 23 c18 21 26 27 26 19z m640 0 c0 -2 -10 -12
-22 -23 l-23 -19 19 23 c18 21 26 27 26 19z m640 0 c0 -2 -10 -12 -22 -23
l-23 -19 19 23 c18 21 26 27 26 19z m640 0 c0 -2 -10 -12 -22 -23 l-23 -19 19
23 c18 21 26 27 26 19z m640 0 c0 -2 -10 -12 -22 -23 l-23 -19 19 23 c18 21
26 27 26 19z m640 0 c0 -2 -10 -12 -22 -23 l-23 -19 19 23 c18 21 26 27 26 19z
m640 0 c0 -2 -10 -12 -22 -23 l-23 -19 19 23 c18 21 26 27 26 19z m640 0 c0
-2 -10 -12 -22 -23 l-23 -19 19 23 c18 21 26 27 26 19z m153 -12 c-3 -9 -8
-14 -10 -11 -3 3 -2 9 2 15 9 16 15 13 8 -4z m-4867 -7 c4 -7 3 -8 -5 -4 -6 4
-20 2 -29 -6 -15 -12 -16 -11 -3 5 16 20 27 22 37 5z m640 0 c4 -7 3 -8 -5 -4
-6 4 -20 2 -29 -6 -15 -12 -16 -11 -3 5 16 20 27 22 37 5z m640 0 c4 -7 3 -8
-5 -4 -6 4 -20 2 -29 -6 -15 -12 -16 -11 -3 5 16 20 27 22 37 5z m640 0 c4 -7
3 -8 -5 -4 -6 4 -20 2 -29 -6 -15 -12 -16 -11 -3 5 16 20 27 22 37 5z m640 0
c4 -7 3 -8 -5 -4 -6 4 -20 2 -29 -6 -15 -12 -16 -11 -3 5 16 20 27 22 37 5z
m640 0 c4 -7 3 -8 -5 -4 -6 4 -20 2 -29 -6 -15 -12 -16 -11 -3 5 16 20 27 22
37 5z m640 0 c4 -7 3 -8 -5 -4 -6 4 -20 2 -29 -6 -15 -12 -16 -11 -3 5 16 20
27 22 37 5z m640 0 c4 -7 3 -8 -5 -4 -6 4 -20 2 -29 -6 -15 -12 -16 -11 -3 5
16 20 27 22 37 5z m345 -11 c-10 -9 -11 -8 -5 6 3 10 9 15 12 12 3 -3 0 -11
-7 -18z m-4720 -14 c13 -17 13 -17 -6 -3 -11 8 -22 16 -24 17 -2 2 0 3 6 3 6
0 17 -8 24 -17z m124 7 c-3 -5 -1 -10 6 -10 7 0 10 -3 6 -6 -9 -9 -28 6 -22
17 4 5 8 9 11 9 3 0 2 -4 -1 -10z m196 -7 c13 -17 13 -17 -6 -3 -11 8 -22 16
-24 17 -2 2 0 3 6 3 6 0 17 -8 24 -17z m320 0 c13 -17 13 -17 -6 -3 -11 8 -22
16 -24 17 -2 2 0 3 6 3 6 0 17 -8 24 -17z m124 7 c-3 -5 -1 -10 6 -10 7 0 10
-3 6 -6 -9 -9 -28 6 -22 17 4 5 8 9 11 9 3 0 2 -4 -1 -10z m196 -7 c13 -17 13
-17 -6 -3 -11 8 -22 16 -24 17 -2 2 0 3 6 3 6 0 17 -8 24 -17z m320 0 c13 -17
13 -17 -6 -3 -11 8 -22 16 -24 17 -2 2 0 3 6 3 6 0 17 -8 24 -17z m124 7 c-3
-5 -1 -10 6 -10 7 0 10 -3 6 -6 -9 -9 -28 6 -22 17 4 5 8 9 11 9 3 0 2 -4 -1
-10z m196 -7 c13 -17 13 -17 -6 -3 -11 8 -22 16 -24 17 -2 2 0 3 6 3 6 0 17
-8 24 -17z m320 0 c13 -17 13 -17 -6 -3 -11 8 -22 16 -24 17 -2 2 0 3 6 3 6 0
17 -8 24 -17z m124 7 c-3 -5 -1 -10 6 -10 7 0 10 -3 6 -6 -9 -9 -28 6 -22 17
4 5 8 9 11 9 3 0 2 -4 -1 -10z m196 -7 c13 -17 13 -17 -6 -3 -11 8 -22 16 -24
17 -2 2 0 3 6 3 6 0 17 -8 24 -17z m320 0 c13 -17 13 -17 -6 -3 -11 8 -22 16
-24 17 -2 2 0 3 6 3 6 0 17 -8 24 -17z m124 7 c-3 -5 -1 -10 6 -10 7 0 10 -3
6 -6 -9 -9 -28 6 -22 17 4 5 8 9 11 9 3 0 2 -4 -1 -10z m196 -7 c13 -17 13
-17 -6 -3 -11 8 -22 16 -24 17 -2 2 0 3 6 3 6 0 17 -8 24 -17z m320 0 c13 -17
13 -17 -6 -3 -11 8 -22 16 -24 17 -2 2 0 3 6 3 6 0 17 -8 24 -17z m124 7 c-3
-5 -1 -10 6 -10 7 0 10 -3 6 -6 -9 -9 -28 6 -22 17 4 5 8 9 11 9 3 0 2 -4 -1
-10z m196 -7 c13 -17 13 -17 -6 -3 -11 8 -22 16 -24 17 -2 2 0 3 6 3 6 0 17
-8 24 -17z m320 0 c13 -17 13 -17 -6 -3 -11 8 -22 16 -24 17 -2 2 0 3 6 3 6 0
17 -8 24 -17z m124 7 c-3 -5 -1 -10 6 -10 7 0 10 -3 6 -6 -9 -9 -28 6 -22 17
4 5 8 9 11 9 3 0 2 -4 -1 -10z m196 -7 c13 -17 13 -17 -6 -3 -11 8 -22 16 -24
17 -2 2 0 3 6 3 6 0 17 -8 24 -17z m320 0 c13 -17 13 -17 -6 -3 -11 8 -22 16
-24 17 -2 2 0 3 6 3 6 0 17 -8 24 -17z m124 7 c-3 -5 -1 -10 6 -10 7 0 10 -3
6 -6 -9 -9 -28 6 -22 17 4 5 8 9 11 9 3 0 2 -4 -1 -10z m-4678 -6 c-3 -3 -12
-4 -19 -1 -8 3 -5 6 6 6 11 1 17 -2 13 -5z m119 -5 c4 -8 9 -7 15 2 6 10 9 10
9 2 0 -19 -14 -22 -35 -7 -10 8 -14 14 -8 14 7 0 15 -5 19 -11z m219 1 c-3 -5
-12 -10 -18 -10 -7 0 -6 4 3 10 19 12 23 12 15 0z m101 -1 c4 -8 9 -7 15 2 6
10 9 10 9 2 0 -19 -14 -22 -35 -7 -10 8 -14 14 -8 14 7 0 15 -5 19 -11z m201
5 c-3 -3 -12 -4 -19 -1 -8 3 -5 6 6 6 11 1 17 -2 13 -5z m119 -5 c4 -8 9 -7
15 2 6 10 9 10 9 2 0 -19 -14 -22 -35 -7 -10 8 -14 14 -8 14 7 0 15 -5 19 -11z
m219 1 c-3 -5 -12 -10 -18 -10 -7 0 -6 4 3 10 19 12 23 12 15 0z m101 -1 c4
-8 9 -7 15 2 6 10 9 10 9 2 0 -19 -14 -22 -35 -7 -10 8 -14 14 -8 14 7 0 15
-5 19 -11z m201 5 c-3 -3 -12 -4 -19 -1 -8 3 -5 6 6 6 11 1 17 -2 13 -5z m119
-5 c4 -8 9 -7 15 2 6 10 9 10 9 2 0 -19 -14 -22 -35 -7 -10 8 -14 14 -8 14 7
0 15 -5 19 -11z m219 1 c-3 -5 -12 -10 -18 -10 -7 0 -6 4 3 10 19 12 23 12 15
0z m101 -1 c4 -8 9 -7 15 2 6 10 9 10 9 2 0 -19 -14 -22 -35 -7 -10 8 -14 14
-8 14 7 0 15 -5 19 -11z m201 5 c-3 -3 -12 -4 -19 -1 -8 3 -5 6 6 6 11 1 17
-2 13 -5z m119 -5 c4 -8 9 -7 15 2 6 10 9 10 9 2 0 -19 -14 -22 -35 -7 -10 8
-14 14 -8 14 7 0 15 -5 19 -11z m219 1 c-3 -5 -12 -10 -18 -10 -7 0 -6 4 3 10
19 12 23 12 15 0z m101 -1 c4 -8 9 -7 15 2 6 10 9 10 9 2 0 -19 -14 -22 -35
-7 -10 8 -14 14 -8 14 7 0 15 -5 19 -11z m201 5 c-3 -3 -12 -4 -19 -1 -8 3 -5
6 6 6 11 1 17 -2 13 -5z m119 -5 c4 -8 9 -7 15 2 6 10 9 10 9 2 0 -19 -14 -22
-35 -7 -10 8 -14 14 -8 14 7 0 15 -5 19 -11z m219 1 c-3 -5 -12 -10 -18 -10
-7 0 -6 4 3 10 19 12 23 12 15 0z m101 -1 c4 -8 9 -7 15 2 6 10 9 10 9 2 0
-19 -14 -22 -35 -7 -10 8 -14 14 -8 14 7 0 15 -5 19 -11z m201 5 c-3 -3 -12
-4 -19 -1 -8 3 -5 6 6 6 11 1 17 -2 13 -5z m119 -5 c4 -8 9 -7 15 2 6 10 9 10
9 2 0 -19 -14 -22 -35 -7 -10 8 -14 14 -8 14 7 0 15 -5 19 -11z m219 1 c-3 -5
-12 -10 -18 -10 -7 0 -6 4 3 10 19 12 23 12 15 0z m101 -1 c4 -8 9 -7 15 2 6
10 9 10 9 2 0 -19 -14 -22 -35 -7 -10 8 -14 14 -8 14 7 0 15 -5 19 -11z m201
5 c-3 -3 -12 -4 -19 -1 -8 3 -5 6 6 6 11 1 17 -2 13 -5z m119 -5 c4 -8 9 -7
15 2 6 10 9 10 9 2 0 -19 -14 -22 -35 -7 -10 8 -14 14 -8 14 7 0 15 -5 19 -11z
m219 1 c-3 -5 -12 -10 -18 -10 -7 0 -6 4 3 10 19 12 23 12 15 0z m101 -1 c4
-8 9 -7 15 2 6 10 9 10 9 2 0 -19 -14 -22 -35 -7 -10 8 -14 14 -8 14 7 0 15
-5 19 -11z m201 5 c-3 -3 -12 -4 -19 -1 -8 3 -5 6 6 6 11 1 17 -2 13 -5z m119
-5 c4 -8 9 -7 15 2 6 10 9 10 9 2 0 -19 -14 -22 -35 -7 -10 8 -14 14 -8 14 7
0 15 -5 19 -11z m219 1 c-3 -5 -12 -10 -18 -10 -7 0 -6 4 3 10 19 12 23 12 15
0z m39 -15 c3 -8 1 -15 -4 -15 -6 0 -10 7 -10 15 0 8 2 15 4 15 2 0 6 -7 10
-15z m-4899 -17 c31 -14 32 -22 0 -36 -16 -7 -25 -8 -25 -1 0 5 7 12 16 16 14
5 12 8 -7 19 -30 17 -19 18 16 2z m640 0 c31 -14 32 -22 0 -36 -16 -7 -25 -8
-25 -1 0 5 7 12 16 16 14 5 12 8 -7 19 -30 17 -19 18 16 2z m640 0 c31 -14 32
-22 0 -36 -16 -7 -25 -8 -25 -1 0 5 7 12 16 16 14 5 12 8 -7 19 -30 17 -19 18
16 2z m640 0 c31 -14 32 -22 0 -36 -16 -7 -25 -8 -25 -1 0 5 7 12 16 16 14 5
12 8 -7 19 -30 17 -19 18 16 2z m640 0 c31 -14 32 -22 0 -36 -16 -7 -25 -8
-25 -1 0 5 7 12 16 16 14 5 12 8 -7 19 -30 17 -19 18 16 2z m640 0 c31 -14 32
-22 0 -36 -16 -7 -25 -8 -25 -1 0 5 7 12 16 16 14 5 12 8 -7 19 -30 17 -19 18
16 2z m640 0 c31 -14 32 -22 0 -36 -16 -7 -25 -8 -25 -1 0 5 7 12 16 16 14 5
12 8 -7 19 -30 17 -19 18 16 2z m640 0 c31 -14 32 -22 0 -36 -16 -7 -25 -8
-25 -1 0 5 7 12 16 16 14 5 12 8 -7 19 -30 17 -19 18 16 2z"/>
<path d="M480 4905 c22 -12 23 -14 8 -20 -10 -4 -15 -11 -12 -16 3 -5 9 -7 14
-4 5 3 14 -3 19 -12 11 -17 11 -17 22 0 5 9 14 15 19 12 5 -3 11 -1 15 5 4 6
12 7 18 3 18 -11 38 -12 31 -2 -3 5 -10 7 -15 4 -5 -4 -9 -1 -9 4 0 6 5 11 10
11 6 0 10 5 10 11 0 8 -4 8 -14 0 -7 -6 -21 -9 -30 -5 -9 3 -16 2 -16 -4 0
-14 -21 -10 -50 11 -13 9 -29 17 -35 17 -5 -1 1 -7 15 -15z m51 -30 c11 6 11
5 2 -5 -12 -14 -33 -6 -33 13 0 8 3 7 9 -2 5 -8 14 -10 22 -6z"/>
<path d="M959 4906 c23 -13 23 -14 5 -24 -22 -13 -22 -14 34 -16 24 -1 46 2
48 6 3 5 11 5 17 1 33 -20 66 7 46 38 -8 12 -10 12 -8 -1 3 -28 -1 -37 -16
-37 -8 0 -15 4 -15 9 0 4 5 8 10 8 6 0 10 5 10 11 0 8 -4 8 -14 0 -7 -6 -21
-9 -30 -5 -9 3 -16 2 -16 -4 0 -14 -21 -10 -50 11 -13 9 -29 17 -35 17 -5 -1
1 -7 14 -14z"/>
<path d="M1440 4905 c22 -12 23 -14 8 -20 -10 -4 -15 -11 -12 -16 3 -5 9 -7
14 -4 5 3 13 -3 19 -12 9 -17 11 -17 25 2 8 11 16 16 16 11 0 -5 7 -3 15 4 8
7 15 9 15 6 0 -4 7 -1 15 8 19 18 20 32 1 17 -7 -6 -21 -9 -30 -5 -9 3 -16 2
-16 -4 0 -14 -21 -10 -50 11 -13 9 -29 17 -35 17 -5 -1 1 -7 15 -15z m51 -30
c11 6 11 5 2 -5 -12 -14 -33 -6 -33 13 0 8 3 7 9 -2 5 -8 14 -10 22 -6z"/>
<path d="M1919 4906 c23 -13 23 -14 5 -24 -22 -13 -22 -14 34 -16 24 -1 46 2
48 6 3 5 11 5 17 1 33 -20 66 7 46 38 -8 12 -10 12 -8 -1 3 -28 -1 -37 -16
-37 -8 0 -15 4 -15 9 0 4 5 8 10 8 6 0 10 5 10 11 0 8 -4 8 -14 0 -7 -6 -21
-9 -30 -5 -9 3 -16 2 -16 -4 0 -14 -21 -10 -50 11 -13 9 -29 17 -35 17 -5 -1
1 -7 14 -14z"/>
<path d="M2400 4905 c22 -12 23 -14 8 -20 -10 -4 -15 -11 -12 -16 3 -5 9 -7
14 -4 5 3 14 -3 19 -12 11 -17 11 -17 22 0 5 9 14 15 19 12 5 -3 11 -1 15 5 4
6 12 7 18 3 18 -11 38 -12 31 -2 -3 5 -10 7 -15 4 -5 -4 -9 -1 -9 4 0 6 5 11
10 11 6 0 10 5 10 11 0 8 -4 8 -14 0 -7 -6 -21 -9 -30 -5 -9 3 -16 2 -16 -4 0
-14 -21 -10 -50 11 -13 9 -29 17 -35 17 -5 -1 1 -7 15 -15z m51 -30 c11 6 11
5 2 -5 -12 -14 -33 -6 -33 13 0 8 3 7 9 -2 5 -8 14 -10 22 -6z"/>
<path d="M2879 4906 c23 -13 23 -14 5 -24 -22 -13 -22 -14 34 -16 24 -1 46 2
48 6 3 5 11 5 17 1 33 -20 66 7 46 38 -8 12 -10 12 -8 -1 3 -28 -1 -37 -16
-37 -8 0 -15 4 -15 9 0 4 5 8 10 8 6 0 10 5 10 11 0 8 -4 8 -14 0 -7 -6 -21
-9 -30 -5 -9 3 -16 2 -16 -4 0 -14 -21 -10 -50 11 -13 9 -29 17 -35 17 -5 -1
1 -7 14 -14z"/>
<path d="M3360 4905 c22 -12 23 -14 8 -20 -10 -4 -15 -11 -12 -16 3 -5 9 -7
14 -4 5 3 13 -3 19 -12 9 -17 11 -17 25 2 8 11 16 16 16 11 0 -5 7 -3 15 4 8
7 15 9 15 6 0 -4 7 -1 15 8 19 18 20 32 1 17 -7 -6 -21 -9 -30 -5 -9 3 -16 2
-16 -4 0 -14 -21 -10 -50 11 -13 9 -29 17 -35 17 -5 -1 1 -7 15 -15z m51 -30
c11 6 11 5 2 -5 -12 -14 -33 -6 -33 13 0 8 3 7 9 -2 5 -8 14 -10 22 -6z"/>
<path d="M3839 4906 c23 -13 23 -14 5 -24 -22 -13 -22 -14 34 -16 24 -1 46 2
48 6 3 5 11 5 17 1 33 -20 66 7 46 38 -8 12 -10 12 -8 -1 3 -28 -1 -37 -16
-37 -8 0 -15 4 -15 9 0 4 5 8 10 8 6 0 10 5 10 11 0 8 -4 8 -14 0 -7 -6 -21
-9 -30 -5 -9 3 -16 2 -16 -4 0 -14 -21 -10 -50 11 -13 9 -29 17 -35 17 -5 -1
1 -7 14 -14z"/>
<path d="M4320 4905 c22 -12 23 -14 8 -20 -10 -4 -15 -11 -12 -16 3 -5 9 -7
14 -4 5 3 14 -3 19 -12 11 -17 11 -17 22 0 5 9 14 15 19 12 5 -3 11 -1 15 5 4
6 12 7 18 3 18 -11 38 -12 31 -2 -3 5 -10 7 -15 4 -5 -4 -9 -1 -9 4 0 6 5 11
10 11 6 0 10 5 10 11 0 8 -4 8 -14 0 -7 -6 -21 -9 -30 -5 -9 3 -16 2 -16 -4 0
-14 -21 -10 -50 11 -13 9 -29 17 -35 17 -5 -1 1 -7 15 -15z m51 -30 c11 6 11
5 2 -5 -12 -14 -33 -6 -33 13 0 8 3 7 9 -2 5 -8 14 -10 22 -6z"/>
<path d="M4799 4906 c23 -13 23 -14 5 -24 -22 -13 -22 -14 34 -16 24 -1 46 2
48 6 3 5 11 5 17 1 33 -20 66 7 46 38 -8 12 -10 12 -8 -1 3 -28 -1 -37 -16
-37 -8 0 -15 4 -15 9 0 4 5 8 10 8 6 0 10 5 10 11 0 8 -4 8 -14 0 -7 -6 -21
-9 -30 -5 -9 3 -16 2 -16 -4 0 -14 -21 -10 -50 11 -13 9 -29 17 -35 17 -5 -1
1 -7 14 -14z"/>
<path d="M275 140 c-4 -6 3 -10 14 -10 25 0 27 6 6 13 -8 4 -17 2 -20 -3z"/>
<path d="M586 128 c-9 -12 -16 -16 -16 -9 0 7 -6 11 -14 8 -7 -3 -19 0 -25 6
-8 8 -14 8 -23 -1 -6 -6 -8 -15 -3 -19 4 -5 10 -2 12 4 4 10 8 9 20 -2 8 -8
18 -13 23 -10 4 3 11 -2 14 -11 5 -12 10 -13 19 -5 10 7 17 7 24 0 8 -8 13 -7
18 2 5 8 4 10 -3 5 -7 -4 -12 -3 -12 3 0 19 19 21 29 4 6 -10 10 -13 11 -8 0
16 -13 31 -37 44 -19 9 -24 8 -37 -11z m24 -18 c-28 -21 -33 -20 -24 4 3 9 16
16 28 16 20 0 20 -1 -4 -20z"/>
<path d="M915 140 c-4 -6 3 -10 14 -10 25 0 27 6 6 13 -8 4 -17 2 -20 -3z"/>
<path d="M1226 128 c-9 -12 -16 -16 -16 -9 0 7 -6 11 -14 8 -7 -3 -19 0 -25 6
-8 8 -14 8 -23 -1 -6 -6 -8 -15 -3 -19 4 -5 10 -2 12 4 4 10 8 9 20 -2 8 -8
18 -13 23 -10 4 3 11 -2 14 -11 5 -12 10 -13 19 -5 10 7 17 7 24 0 8 -8 13 -7
18 2 5 8 4 10 -3 5 -7 -4 -12 -3 -12 3 0 19 19 21 29 4 6 -10 10 -13 11 -8 0
16 -13 31 -37 44 -19 9 -24 8 -37 -11z m24 -18 c-28 -21 -33 -20 -24 4 3 9 16
16 28 16 20 0 20 -1 -4 -20z"/>
<path d="M1555 140 c-4 -6 3 -10 14 -10 25 0 27 6 6 13 -8 4 -17 2 -20 -3z"/>
<path d="M1866 128 c-9 -12 -16 -16 -16 -9 0 7 -6 11 -14 8 -7 -3 -19 0 -25 6
-8 8 -14 8 -23 -1 -6 -6 -8 -15 -3 -19 4 -5 10 -2 12 4 4 10 8 9 20 -2 8 -8
18 -13 23 -10 4 3 11 -2 14 -11 5 -12 10 -13 19 -5 10 7 17 7 24 0 8 -8 13 -7
18 2 5 8 4 10 -3 5 -7 -4 -12 -3 -12 3 0 19 19 21 29 4 6 -10 10 -13 11 -8 0
16 -13 31 -37 44 -19 9 -24 8 -37 -11z m24 -18 c-28 -21 -33 -20 -24 4 3 9 16
16 28 16 20 0 20 -1 -4 -20z"/>
<path d="M2195 140 c-4 -6 3 -10 14 -10 25 0 27 6 6 13 -8 4 -17 2 -20 -3z"/>
<path d="M2506 128 c-9 -12 -16 -16 -16 -9 0 7 -6 11 -14 8 -7 -3 -19 0 -25 6
-8 8 -14 8 -23 -1 -6 -6 -8 -15 -3 -19 4 -5 10 -2 12 4 4 10 8 9 20 -2 8 -8
18 -13 23 -10 4 3 11 -2 14 -11 5 -12 10 -13 19 -5 10 7 17 7 24 0 8 -8 13 -7
18 2 5 8 4 10 -3 5 -7 -4 -12 -3 -12 3 0 19 19 21 29 4 6 -10 10 -13 11 -8 0
16 -13 31 -37 44 -19 9 -24 8 -37 -11z m24 -18 c-28 -21 -33 -20 -24 4 3 9 16
16 28 16 20 0 20 -1 -4 -20z"/>
<path d="M2835 140 c-4 -6 3 -10 14 -10 25 0 27 6 6 13 -8 4 -17 2 -20 -3z"/>
<path d="M3146 128 c-9 -12 -16 -16 -16 -9 0 7 -6 11 -14 8 -7 -3 -19 0 -25 6
-8 8 -14 8 -23 -1 -6 -6 -8 -15 -3 -19 4 -5 10 -2 12 4 4 10 8 9 20 -2 8 -8
18 -13 23 -10 4 3 11 -2 14 -11 5 -12 10 -13 19 -5 10 7 17 7 24 0 8 -8 13 -7
18 2 5 8 4 10 -3 5 -7 -4 -12 -3 -12 3 0 19 19 21 29 4 6 -10 10 -13 11 -8 0
16 -13 31 -37 44 -19 9 -24 8 -37 -11z m24 -18 c-28 -21 -33 -20 -24 4 3 9 16
16 28 16 20 0 20 -1 -4 -20z"/>
<path d="M3475 140 c-4 -6 3 -10 14 -10 25 0 27 6 6 13 -8 4 -17 2 -20 -3z"/>
<path d="M3786 128 c-9 -12 -16 -16 -16 -9 0 7 -6 11 -14 8 -7 -3 -19 0 -25 6
-8 8 -14 8 -23 -1 -6 -6 -8 -15 -3 -19 4 -5 10 -2 12 4 4 10 8 9 20 -2 8 -8
18 -13 23 -10 4 3 11 -2 14 -11 5 -12 10 -13 19 -5 10 7 17 7 24 0 8 -8 13 -7
18 2 5 8 4 10 -3 5 -7 -4 -12 -3 -12 3 0 19 19 21 29 4 6 -10 10 -13 11 -8 0
16 -13 31 -37 44 -19 9 -24 8 -37 -11z m24 -18 c-28 -21 -33 -20 -24 4 3 9 16
16 28 16 20 0 20 -1 -4 -20z"/>
<path d="M4115 140 c-4 -6 3 -10 14 -10 25 0 27 6 6 13 -8 4 -17 2 -20 -3z"/>
<path d="M4426 128 c-9 -12 -16 -16 -16 -9 0 7 -6 11 -14 8 -7 -3 -19 0 -25 6
-8 8 -14 8 -23 -1 -6 -6 -8 -15 -3 -19 4 -5 10 -2 12 4 4 10 8 9 20 -2 8 -8
18 -13 23 -10 4 3 11 -2 14 -11 5 -12 10 -13 19 -5 10 7 17 7 24 0 8 -8 13 -7
18 2 5 8 4 10 -3 5 -7 -4 -12 -3 -12 3 0 19 19 21 29 4 6 -10 10 -13 11 -8 0
16 -13 31 -37 44 -19 9 -24 8 -37 -11z m24 -18 c-28 -21 -33 -20 -24 4 3 9 16
16 28 16 20 0 20 -1 -4 -20z"/>
<path d="M4755 140 c-4 -6 3 -10 14 -10 25 0 27 6 6 13 -8 4 -17 2 -20 -3z"/>
<path d="M139 139 c-6 -31 -6 -38 2 -33 8 5 13 -9 10 -28 -2 -13 9 -9 27 9 16
16 16 16 -2 10 -13 -5 -17 -3 -13 7 3 8 -1 20 -9 26 -8 7 -14 11 -15 9z"/>
<path d="M187 133 c-10 -9 -9 -23 2 -23 5 0 11 7 15 15 5 15 -5 20 -17 8z"/>
<path d="M424 128 c-3 -4 -11 -5 -18 -2 -15 6 -27 -18 -17 -34 4 -7 12 -8 21
-2 13 8 12 10 -3 10 -10 0 -15 5 -12 10 4 7 13 7 26 0 11 -6 17 -15 14 -21 -4
-5 -4 -9 -1 -9 3 0 12 13 21 29 14 28 14 30 -6 28 -11 -1 -23 -5 -25 -9z m21
-8 c3 -5 1 -10 -4 -10 -6 0 -11 5 -11 10 0 6 2 10 4 10 3 0 8 -4 11 -10z"/>
<path d="M779 139 c-6 -31 -6 -38 2 -33 8 5 13 -9 10 -28 -2 -13 9 -9 27 9 16
16 16 16 -2 10 -13 -5 -17 -3 -13 7 3 8 -1 20 -9 26 -8 7 -14 11 -15 9z"/>
<path d="M827 133 c-10 -9 -9 -23 2 -23 5 0 11 7 15 15 5 15 -5 20 -17 8z"/>
<path d="M1064 128 c-3 -4 -11 -5 -18 -2 -15 6 -27 -18 -17 -34 4 -7 12 -8 21
-2 13 8 12 10 -3 10 -10 0 -15 5 -12 10 4 7 13 7 26 0 11 -6 17 -15 14 -21 -4
-5 -4 -9 -1 -9 3 0 12 13 21 29 14 28 14 30 -6 28 -11 -1 -23 -5 -25 -9z m21
-8 c3 -5 1 -10 -4 -10 -6 0 -11 5 -11 10 0 6 2 10 4 10 3 0 8 -4 11 -10z"/>
<path d="M1419 139 c-6 -31 -6 -38 2 -33 8 5 13 -9 10 -28 -2 -13 9 -9 27 9
16 16 16 16 -2 10 -13 -5 -17 -3 -13 7 3 8 -1 20 -9 26 -8 7 -14 11 -15 9z"/>
<path d="M1467 133 c-10 -9 -9 -23 2 -23 5 0 11 7 15 15 5 15 -5 20 -17 8z"/>
<path d="M1704 128 c-3 -4 -11 -5 -18 -2 -15 6 -27 -18 -17 -34 4 -7 12 -8 21
-2 13 8 12 10 -3 10 -10 0 -15 5 -12 10 4 7 13 7 26 0 11 -6 17 -15 14 -21 -4
-5 -4 -9 -1 -9 3 0 12 13 21 29 14 28 14 30 -6 28 -11 -1 -23 -5 -25 -9z m21
-8 c3 -5 1 -10 -4 -10 -6 0 -11 5 -11 10 0 6 2 10 4 10 3 0 8 -4 11 -10z"/>
<path d="M2059 139 c-6 -31 -6 -38 2 -33 8 5 13 -9 10 -28 -2 -13 9 -9 27 9
16 16 16 16 -2 10 -13 -5 -17 -3 -13 7 3 8 -1 20 -9 26 -8 7 -14 11 -15 9z"/>
<path d="M2107 133 c-10 -9 -9 -23 2 -23 5 0 11 7 15 15 5 15 -5 20 -17 8z"/>
<path d="M2344 128 c-3 -4 -11 -5 -18 -2 -15 6 -27 -18 -17 -34 4 -7 12 -8 21
-2 13 8 12 10 -3 10 -10 0 -15 5 -12 10 4 7 13 7 26 0 11 -6 17 -15 14 -21 -4
-5 -4 -9 -1 -9 3 0 12 13 21 29 14 28 14 30 -6 28 -11 -1 -23 -5 -25 -9z m21
-8 c3 -5 1 -10 -4 -10 -6 0 -11 5 -11 10 0 6 2 10 4 10 3 0 8 -4 11 -10z"/>
<path d="M2699 139 c-6 -31 -6 -38 2 -33 8 5 13 -9 10 -28 -2 -13 9 -9 27 9
16 16 16 16 -2 10 -13 -5 -17 -3 -13 7 3 8 -1 20 -9 26 -8 7 -14 11 -15 9z"/>
<path d="M2747 133 c-10 -9 -9 -23 2 -23 5 0 11 7 15 15 5 15 -5 20 -17 8z"/>
<path d="M2984 128 c-3 -4 -11 -5 -18 -2 -15 6 -27 -18 -17 -34 4 -7 12 -8 21
-2 13 8 12 10 -3 10 -10 0 -15 5 -12 10 4 7 13 7 26 0 11 -6 17 -15 14 -21 -4
-5 -4 -9 -1 -9 3 0 12 13 21 29 14 28 14 30 -6 28 -11 -1 -23 -5 -25 -9z m21
-8 c3 -5 1 -10 -4 -10 -6 0 -11 5 -11 10 0 6 2 10 4 10 3 0 8 -4 11 -10z"/>
<path d="M3339 139 c-6 -31 -6 -38 2 -33 8 5 13 -9 10 -28 -2 -13 9 -9 27 9
16 16 16 16 -2 10 -13 -5 -17 -3 -13 7 3 8 -1 20 -9 26 -8 7 -14 11 -15 9z"/>
<path d="M3387 133 c-10 -9 -9 -23 2 -23 5 0 11 7 15 15 5 15 -5 20 -17 8z"/>
<path d="M3624 128 c-3 -4 -11 -5 -18 -2 -15 6 -27 -18 -17 -34 4 -7 12 -8 21
-2 13 8 12 10 -3 10 -10 0 -15 5 -12 10 4 7 13 7 26 0 11 -6 17 -15 14 -21 -4
-5 -4 -9 -1 -9 3 0 12 13 21 29 14 28 14 30 -6 28 -11 -1 -23 -5 -25 -9z m21
-8 c3 -5 1 -10 -4 -10 -6 0 -11 5 -11 10 0 6 2 10 4 10 3 0 8 -4 11 -10z"/>
<path d="M3979 139 c-6 -31 -6 -38 2 -33 8 5 13 -9 10 -28 -2 -13 9 -9 27 9
16 16 16 16 -2 10 -13 -5 -17 -3 -13 7 3 8 -1 20 -9 26 -8 7 -14 11 -15 9z"/>
<path d="M4027 133 c-10 -9 -9 -23 2 -23 5 0 11 7 15 15 5 15 -5 20 -17 8z"/>
<path d="M4264 128 c-3 -4 -11 -5 -18 -2 -15 6 -27 -18 -17 -34 4 -7 12 -8 21
-2 13 8 12 10 -3 10 -10 0 -15 5 -12 10 4 7 13 7 26 0 11 -6 17 -15 14 -21 -4
-5 -4 -9 -1 -9 3 0 12 13 21 29 14 28 14 30 -6 28 -11 -1 -23 -5 -25 -9z m21
-8 c3 -5 1 -10 -4 -10 -6 0 -11 5 -11 10 0 6 2 10 4 10 3 0 8 -4 11 -10z"/>
<path d="M4619 139 c-6 -31 -6 -38 2 -33 8 5 13 -9 10 -28 -2 -13 9 -9 27 9
16 16 16 16 -2 10 -13 -5 -17 -3 -13 7 3 8 -1 20 -9 26 -8 7 -14 11 -15 9z"/>
<path d="M4667 133 c-10 -9 -9 -23 2 -23 5 0 11 7 15 15 5 15 -5 20 -17 8z"/>
<path d="M4904 128 c-3 -4 -11 -5 -18 -2 -15 6 -27 -18 -17 -34 4 -7 12 -8 21
-2 13 8 12 10 -3 10 -10 0 -15 5 -12 10 9 14 47 -8 40 -23 -4 -7 1 -3 9 7 9
11 16 24 16 29 0 4 5 5 12 1 6 -4 8 -3 4 4 -7 12 -45 12 -52 0z m21 -8 c3 -5
1 -10 -4 -10 -6 0 -11 5 -11 10 0 6 2 10 4 10 3 0 8 -4 11 -10z"/>
<path d="M356 117 c-14 -11 -16 -18 -9 -31 9 -17 11 -17 16 -2 4 10 3 15 -3
11 -17 -11 -11 7 8 21 22 18 11 18 -12 1z"/>
<path d="M996 117 c-14 -11 -16 -18 -9 -31 9 -17 11 -17 16 -2 4 10 3 15 -3
11 -17 -11 -11 7 8 21 22 18 11 18 -12 1z"/>
<path d="M1636 117 c-14 -11 -16 -18 -9 -31 9 -17 11 -17 16 -2 4 10 3 15 -3
11 -17 -11 -11 7 8 21 22 18 11 18 -12 1z"/>
<path d="M2276 117 c-14 -11 -16 -18 -9 -31 9 -17 11 -17 16 -2 4 10 3 15 -3
11 -17 -11 -11 7 8 21 22 18 11 18 -12 1z"/>
<path d="M2916 117 c-14 -11 -16 -18 -9 -31 9 -17 11 -17 16 -2 4 10 3 15 -3
11 -17 -11 -11 7 8 21 22 18 11 18 -12 1z"/>
<path d="M3556 117 c-14 -11 -16 -18 -9 -31 9 -17 11 -17 16 -2 4 10 3 15 -3
11 -17 -11 -11 7 8 21 22 18 11 18 -12 1z"/>
<path d="M4196 117 c-14 -11 -16 -18 -9 -31 9 -17 11 -17 16 -2 4 10 3 15 -3
11 -17 -11 -11 7 8 21 22 18 11 18 -12 1z"/>
<path d="M4836 117 c-14 -11 -16 -18 -9 -31 9 -17 11 -17 16 -2 4 10 3 15 -3
11 -17 -11 -11 7 8 21 22 18 11 18 -12 1z"/>
<path d="M212 86 c7 -8 15 -12 17 -11 5 6 -10 25 -20 25 -5 0 -4 -6 3 -14z"/>
<path d="M485 89 c-11 -16 -1 -19 13 -3 7 8 8 14 3 14 -5 0 -13 -5 -16 -11z"/>
<path d="M532 86 c7 -8 15 -12 17 -11 5 6 -10 25 -20 25 -5 0 -4 -6 3 -14z"/>
<path d="M852 86 c7 -8 15 -12 17 -11 5 6 -10 25 -20 25 -5 0 -4 -6 3 -14z"/>
<path d="M1125 89 c-11 -16 -1 -19 13 -3 7 8 8 14 3 14 -5 0 -13 -5 -16 -11z"/>
<path d="M1172 86 c7 -8 15 -12 17 -11 5 6 -10 25 -20 25 -5 0 -4 -6 3 -14z"/>
<path d="M1492 86 c7 -8 15 -12 17 -11 5 6 -10 25 -20 25 -5 0 -4 -6 3 -14z"/>
<path d="M1765 89 c-11 -16 -1 -19 13 -3 7 8 8 14 3 14 -5 0 -13 -5 -16 -11z"/>
<path d="M1812 86 c7 -8 15 -12 17 -11 5 6 -10 25 -20 25 -5 0 -4 -6 3 -14z"/>
<path d="M2132 86 c7 -8 15 -12 17 -11 5 6 -10 25 -20 25 -5 0 -4 -6 3 -14z"/>
<path d="M2405 89 c-11 -16 -1 -19 13 -3 7 8 8 14 3 14 -5 0 -13 -5 -16 -11z"/>
<path d="M2452 86 c7 -8 15 -12 17 -11 5 6 -10 25 -20 25 -5 0 -4 -6 3 -14z"/>
<path d="M2772 86 c7 -8 15 -12 17 -11 5 6 -10 25 -20 25 -5 0 -4 -6 3 -14z"/>
<path d="M3045 89 c-11 -16 -1 -19 13 -3 7 8 8 14 3 14 -5 0 -13 -5 -16 -11z"/>
<path d="M3092 86 c7 -8 15 -12 17 -11 5 6 -10 25 -20 25 -5 0 -4 -6 3 -14z"/>
<path d="M3412 86 c7 -8 15 -12 17 -11 5 6 -10 25 -20 25 -5 0 -4 -6 3 -14z"/>
<path d="M3685 89 c-11 -16 -1 -19 13 -3 7 8 8 14 3 14 -5 0 -13 -5 -16 -11z"/>
<path d="M3732 86 c7 -8 15 -12 17 -11 5 6 -10 25 -20 25 -5 0 -4 -6 3 -14z"/>
<path d="M4052 86 c7 -8 15 -12 17 -11 5 6 -10 25 -20 25 -5 0 -4 -6 3 -14z"/>
<path d="M4325 89 c-11 -16 -1 -19 13 -3 7 8 8 14 3 14 -5 0 -13 -5 -16 -11z"/>
<path d="M4372 86 c7 -8 15 -12 17 -11 5 6 -10 25 -20 25 -5 0 -4 -6 3 -14z"/>
<path d="M4692 86 c7 -8 15 -12 17 -11 5 6 -10 25 -20 25 -5 0 -4 -6 3 -14z"/>
<path d="M118 83 c7 -3 16 -2 19 1 4 3 -2 6 -13 5 -11 0 -14 -3 -6 -6z"/>
<path d="M758 83 c7 -3 16 -2 19 1 4 3 -2 6 -13 5 -11 0 -14 -3 -6 -6z"/>
<path d="M1398 83 c7 -3 16 -2 19 1 4 3 -2 6 -13 5 -11 0 -14 -3 -6 -6z"/>
<path d="M2038 83 c7 -3 16 -2 19 1 4 3 -2 6 -13 5 -11 0 -14 -3 -6 -6z"/>
<path d="M2678 83 c7 -3 16 -2 19 1 4 3 -2 6 -13 5 -11 0 -14 -3 -6 -6z"/>
<path d="M3318 83 c7 -3 16 -2 19 1 4 3 -2 6 -13 5 -11 0 -14 -3 -6 -6z"/>
<path d="M3958 83 c7 -3 16 -2 19 1 4 3 -2 6 -13 5 -11 0 -14 -3 -6 -6z"/>
<path d="M4598 83 c7 -3 16 -2 19 1 4 3 -2 6 -13 5 -11 0 -14 -3 -6 -6z"/>
</g>
</svg>
